<svg width="51" height="43" viewBox="0 0 51 43" fill="none" xmlns="http://www.w3.org/2000/svg">
    <g clip-path="url(#clip0_0_7)">
        <path d="M45.736 6.669H35.455V4.612C35.4539 3.52175 35.0204 2.47647 34.2495 1.70555C33.4785 0.934627 32.4332 0.501059 31.343 0.5H19.006C17.9158 0.501059 16.8705 0.934627 16.0995 1.70555C15.3286 2.47647 14.8951 3.52175 14.894 4.612V6.668H4.612C3.52166 6.66932 2.47638 7.10311 1.70549 7.87419C0.934594 8.64527 0.501059 9.69066 0.5 10.781L0.5 37.511C0.500794 38.6014 0.934245 39.647 1.70519 40.4181C2.47614 41.1892 3.52158 41.6229 4.612 41.624H45.736C46.8262 41.6229 47.8715 41.1894 48.6425 40.4184C49.4134 39.6475 49.8469 38.6022 49.848 37.512V10.781C49.8467 9.69083 49.413 8.6457 48.6422 7.87484C47.8713 7.10398 46.8262 6.67032 45.736 6.669ZM16.95 4.612C16.9508 4.06696 17.1677 3.54447 17.5531 3.15907C17.9385 2.77366 18.461 2.55679 19.006 2.556H31.343C31.8882 2.55653 32.411 2.77328 32.7966 3.15871C33.1822 3.54414 33.3992 4.06679 33.4 4.612V6.668H16.95V4.612ZM47.793 37.512C47.7922 38.057 47.5753 38.5795 47.1899 38.9649C46.8045 39.3503 46.282 39.5672 45.737 39.568H4.612C4.06696 39.5672 3.54447 39.3503 3.15907 38.9649C2.77366 38.5795 2.55679 38.057 2.556 37.512V22.546C3.17816 22.9164 3.88795 23.1138 4.612 23.118H21.062V26.202C21.0615 26.3373 21.0877 26.4714 21.1391 26.5966C21.1905 26.7218 21.2662 26.8356 21.3617 26.9315C21.4572 27.0274 21.5707 27.1035 21.6957 27.1554C21.8207 27.2073 21.9547 27.234 22.09 27.234H28.259C28.394 27.234 28.5277 27.2074 28.6524 27.1557C28.7771 27.1041 28.8904 27.0284 28.9859 26.9329C29.0814 26.8374 29.1571 26.7241 29.2087 26.5994C29.2604 26.4747 29.287 26.341 29.287 26.206V23.118H45.737C46.4611 23.1139 47.1709 22.9164 47.793 22.546V37.511V37.512ZM23.118 25.174V21.062H27.23V25.174H23.118ZM47.792 19.005C47.7912 19.55 47.5743 20.0725 47.1889 20.4579C46.8035 20.8433 46.281 21.0602 45.736 21.061H29.287V20.034C29.287 19.7614 29.1787 19.4999 28.9859 19.3071C28.7931 19.1143 28.5316 19.006 28.259 19.006H22.09C21.8174 19.006 21.5559 19.1143 21.3631 19.3071C21.1703 19.4999 21.062 19.7614 21.062 20.034V21.062H4.612C4.06696 21.0612 3.54447 20.8443 3.15907 20.4589C2.77366 20.0735 2.55679 19.551 2.556 19.006V10.781C2.55679 10.236 2.77366 9.71347 3.15907 9.32806C3.54447 8.94266 4.06696 8.72579 4.612 8.725H45.736C46.281 8.72579 46.8035 8.94266 47.1889 9.32806C47.5743 9.71347 47.7912 10.236 47.792 10.781V19.005Z" fill="black" stroke="black"/>
    </g>
    <defs>
        <clipPath id="clip0_0_7">
            <rect width="50.349" height="42.124" fill="white"/>
        </clipPath>
    </defs>
</svg>
