<svg width="52" height="53" viewBox="0 0 52 53" fill="none" xmlns="http://www.w3.org/2000/svg">
  <g filter="url(#filter0_d_1_9)">
    <path d="M4.74426e-07 1.057V31.726C-0.000131069 31.8647 0.0270934 32.0021 0.0801158 32.1303C0.133138 32.2584 0.210918 32.3749 0.309002 32.473C0.407087 32.5711 0.523552 32.6489 0.651731 32.7019C0.77991 32.7549 0.917287 32.7821 1.056 32.782H14.337C14.5647 33.2633 14.8567 33.7114 15.205 34.114C15.4375 34.3655 15.6322 34.6495 15.783 34.957C15.8488 35.3125 15.8613 35.6758 15.82 36.035C15.683 36.8952 15.8507 37.7762 16.294 38.526C16.6984 39.0315 17.2543 39.394 17.88 39.56L13.667 49.422C13.5746 49.6392 13.5575 49.881 13.6186 50.109C13.6797 50.337 13.8155 50.5379 14.0041 50.6797C14.1928 50.8216 14.4235 50.8961 14.6595 50.8914C14.8955 50.8867 15.1231 50.8032 15.306 50.654L17.806 48.617L18.06 51.83C18.0789 52.0653 18.176 52.2876 18.3359 52.4614C18.4957 52.6352 18.7091 52.7505 18.942 52.789C18.9986 52.7978 19.0557 52.8022 19.113 52.802C19.3198 52.802 19.5221 52.7412 19.6947 52.6273C19.8674 52.5133 20.0027 52.3512 20.084 52.161L24.211 42.501C24.318 42.462 24.428 42.423 24.532 42.383C24.8694 42.2305 25.2277 42.1294 25.595 42.083C25.962 42.1293 26.32 42.2305 26.657 42.383L26.982 42.504L31.107 52.16C31.1883 52.3502 31.3236 52.5123 31.4963 52.6263C31.6689 52.7402 31.8712 52.801 32.078 52.801C32.1353 52.8012 32.1924 52.7968 32.249 52.788C32.482 52.7497 32.6955 52.6344 32.8553 52.4606C33.0152 52.2867 33.1122 52.0644 33.131 51.829L33.385 48.616L35.88 50.654C36.0629 50.8032 36.2905 50.8867 36.5265 50.8914C36.7625 50.8961 36.9932 50.8216 37.1819 50.6797C37.3705 50.5379 37.5063 50.337 37.5674 50.109C37.6285 49.881 37.6114 49.6392 37.519 49.422L33.306 39.56C33.932 39.3941 34.4883 39.0317 34.893 38.526C35.3352 37.7762 35.5028 36.8959 35.367 36.036C35.3258 35.6758 35.3383 35.3115 35.404 34.955C35.5551 34.648 35.7498 34.3644 35.982 34.113C36.3299 33.7106 36.6216 33.2629 36.849 32.782H50.129C50.4083 32.7809 50.6758 32.6692 50.8728 32.4712C51.0698 32.2733 51.1803 32.0053 51.18 31.726V1.057C51.1803 0.777369 51.0695 0.509072 50.8721 0.311062C50.6746 0.113053 50.4066 0.0015299 50.127 0.000999925H1.056C0.917287 0.000868381 0.77991 0.0280929 0.651731 0.0811152C0.523552 0.134138 0.407087 0.211917 0.309002 0.310002C0.210918 0.408087 0.133138 0.524551 0.0801158 0.65273C0.0270934 0.78091 -0.000131069 0.918287 4.74426e-07 1.057ZM19.823 47.385L19.749 46.441C19.7336 46.249 19.666 46.0649 19.5535 45.9086C19.4411 45.7523 19.288 45.6297 19.1109 45.5541C18.9337 45.4785 18.7393 45.4528 18.5486 45.4798C18.3579 45.5067 18.1782 45.5853 18.029 45.707L17.295 46.307L19.811 40.417C19.928 40.572 20.049 40.756 20.167 40.94C20.5506 41.6562 21.1413 42.2399 21.862 42.615L19.823 47.385ZM33.154 45.707C33.0048 45.5853 32.8251 45.5067 32.6344 45.4798C32.4437 45.4528 32.2493 45.4785 32.0721 45.5541C31.895 45.6297 31.7419 45.7523 31.6295 45.9086C31.517 46.0649 31.4494 46.249 31.434 46.441L31.36 47.385L29.322 42.613C30.0419 42.2389 30.632 41.6561 31.015 40.941C31.134 40.757 31.255 40.573 31.372 40.418L33.888 46.306L33.154 45.707ZM34.342 32.781C33.9347 33.2256 33.613 33.7416 33.393 34.303C33.235 34.9024 33.1883 35.5257 33.255 36.142C33.3118 36.5232 33.2872 36.912 33.183 37.283C32.8595 37.502 32.4924 37.6483 32.107 37.712C31.5025 37.836 30.9262 38.0706 30.407 38.404C29.9358 38.7914 29.5398 39.2623 29.239 39.793C28.999 40.163 28.701 40.624 28.489 40.693C28.1119 40.6735 27.7427 40.5772 27.404 40.41C26.8308 40.1527 26.2153 40.0029 25.588 39.968C24.9607 40.0029 24.3452 40.1527 23.772 40.41C23.4329 40.5759 23.0639 40.6721 22.687 40.693C22.476 40.624 22.177 40.163 21.937 39.793C21.6362 39.2625 21.2403 38.792 20.769 38.405C20.2498 38.0716 19.6734 37.837 19.069 37.713C18.6836 37.6493 18.3165 37.503 17.993 37.284C17.8878 36.9132 17.8629 36.5242 17.92 36.143C17.9877 35.5271 17.9412 34.904 17.783 34.305C17.5631 33.7432 17.2414 33.2269 16.834 32.782C16.553 32.437 16.202 32.006 16.202 31.769C16.202 31.532 16.553 31.102 16.834 30.756C17.2413 30.3114 17.563 29.7954 17.783 29.234C17.9412 28.6346 17.9876 28.0112 17.92 27.395C17.8629 27.0138 17.8878 26.6248 17.993 26.254C18.3166 26.0354 18.6837 25.8894 19.069 25.826C19.6733 25.7008 20.2495 25.466 20.769 25.133C21.2423 24.7451 21.64 24.2732 21.942 23.741C22.182 23.371 22.48 22.91 22.693 22.841C23.07 22.8574 23.4392 22.9539 23.776 23.124C24.3492 23.3813 24.9647 23.5311 25.592 23.566C26.2193 23.5311 26.8348 23.3813 27.408 23.124C27.7452 22.954 28.1147 22.8575 28.492 22.841C28.704 22.91 29.002 23.371 29.242 23.741C29.5436 24.2721 29.9406 24.7429 30.413 25.13C30.9324 25.4632 31.5087 25.6981 32.113 25.823C32.4981 25.8868 32.865 26.0324 33.189 26.25C33.2932 26.6213 33.3177 27.0105 33.261 27.392C33.1943 28.0083 33.241 28.6316 33.399 29.231C33.6187 29.7923 33.9401 30.3083 34.347 30.753C34.628 31.1 34.979 31.53 34.979 31.766C34.979 32.002 34.628 32.432 34.348 32.779L34.342 32.781ZM2.112 2.113H49.071V30.67H36.81C36.5845 30.2222 36.3055 29.8035 35.979 29.423C35.7464 29.1719 35.5517 28.8883 35.401 28.581C35.3352 28.2245 35.3228 27.8602 35.364 27.5C35.4998 26.6397 35.3319 25.7589 34.889 25.009C34.3087 24.3534 33.518 23.9205 32.653 23.785C32.3038 23.7143 31.9668 23.5927 31.653 23.424C31.4009 23.1807 31.186 22.9018 31.015 22.596C30.617 21.8074 29.9549 21.1835 29.144 20.833C28.302 20.6429 27.4199 20.7559 26.653 21.152C26.316 21.3046 25.958 21.4057 25.591 21.452C25.2237 21.4056 24.8654 21.3045 24.528 21.152C23.7614 20.7561 22.8797 20.6432 22.038 20.833C21.2276 21.1838 20.5659 21.8077 20.168 22.596C19.9964 22.9013 19.7815 23.1802 19.53 23.424C19.2162 23.5928 18.8792 23.7144 18.53 23.785C17.6651 23.9208 16.8744 24.3536 16.294 25.009C15.8508 25.7592 15.6831 26.6405 15.82 27.501C15.8603 27.861 15.8469 28.225 15.78 28.581C15.6289 28.888 15.4342 29.1716 15.202 29.423C14.8755 29.8039 14.5965 30.2229 14.371 30.671H2.112V2.113Z" fill="black"/>
    <path d="M25.591 27.728C24.7433 27.728 23.9147 27.9794 23.2098 28.4503C22.505 28.9213 21.9557 29.5907 21.6313 30.3738C21.3069 31.157 21.222 32.0188 21.3874 32.8502C21.5527 33.6816 21.9609 34.4453 22.5603 35.0447C23.1598 35.6441 23.9234 36.0523 24.7548 36.2176C25.5862 36.383 26.448 36.2981 27.2312 35.9737C28.0143 35.6494 28.6837 35.1 29.1547 34.3952C29.6256 33.6903 29.877 32.8617 29.877 32.014C29.8757 30.8777 29.4237 29.7883 28.6202 28.9848C27.8167 28.1813 26.7273 27.7293 25.591 27.728V27.728ZM25.591 34.577C25.0841 34.577 24.5886 34.4267 24.1671 34.1451C23.7456 33.8634 23.4171 33.4631 23.2231 32.9948C23.0291 32.5265 22.9784 32.0112 23.0773 31.514C23.1761 31.0168 23.4202 30.5601 23.7787 30.2017C24.1371 29.8432 24.5938 29.5991 25.091 29.5002C25.5882 29.4014 26.1035 29.4521 26.5718 29.6461C27.0401 29.8401 27.4404 30.1686 27.7221 30.5901C28.0037 31.0116 28.154 31.5071 28.154 32.014C28.1535 32.6936 27.8833 33.3452 27.4027 33.8257C26.9222 34.3063 26.2706 34.5765 25.591 34.577V34.577Z" fill="black"/>
    <path d="M8.234 7.458H42.949C43.588 7.458 44.105 7.073 44.105 6.596C44.105 6.119 43.588 5.734 42.949 5.734H8.234C7.595 5.734 7.078 6.119 7.078 6.596C7.078 7.073 7.595 7.458 8.234 7.458Z" fill="black"/>
    <path d="M42.949 16.274C43.588 16.274 44.105 15.889 44.105 15.412C44.105 14.935 43.588 14.55 42.949 14.55H8.234C7.595 14.55 7.078 14.935 7.078 15.412C7.078 15.889 7.595 16.274 8.234 16.274H42.949Z" fill="black"/>
  </g>
  <defs>
    <filter id="filter0_d_1_9" x="-4" y="0.000999451" width="59.18" height="60.801" filterUnits="userSpaceOnUse" color-interpolation-filters="sRGB">
      <feFlood flood-opacity="0" result="BackgroundImageFix"/>
      <feColorMatrix in="SourceAlpha" type="matrix" values="0 0 0 0 0 0 0 0 0 0 0 0 0 0 0 0 0 0 127 0" result="hardAlpha"/>
      <feOffset dy="4"/>
      <feGaussianBlur stdDeviation="2"/>
      <feComposite in2="hardAlpha" operator="out"/>
      <feColorMatrix type="matrix" values="0 0 0 0 0 0 0 0 0 0 0 0 0 0 0 0 0 0 0.25 0"/>
      <feBlend mode="normal" in2="BackgroundImageFix" result="effect1_dropShadow_1_9"/>
      <feBlend mode="normal" in="SourceGraphic" in2="effect1_dropShadow_1_9" result="shape"/>
    </filter>
  </defs>
</svg>
