<svg xmlns="http://www.w3.org/2000/svg" width="59.172" height="59.172" viewBox="0 0 59.172 59.172">
  <g id="category" transform="translate(-0.5 -0.5)">
    <path id="Path_23259" data-name="Path 23259" d="M10.022,27.574A9.533,9.533,0,0,1,.5,18.052v-8.03A9.532,9.532,0,0,1,10.022.5h8.029a9.534,9.534,0,0,1,9.523,9.521V26.062a1.517,1.517,0,0,1-1.5,1.512Zm0-24.069a6.524,6.524,0,0,0-6.517,6.517v8.029a6.524,6.524,0,0,0,6.517,6.517H24.569V10.022a6.524,6.524,0,0,0-6.517-6.517Z" fill="#fff"/>
    <path id="Path_23260" data-name="Path 23260" d="M34.091,27.574a1.513,1.513,0,0,1-1.512-1.512V10.022A9.533,9.533,0,0,1,42.1.5H50.15a9.521,9.521,0,0,1,9.522,9.521v8.03a9.533,9.533,0,0,1-9.521,9.523H34.091ZM42.119,3.505A6.524,6.524,0,0,0,35.6,10.022V24.569H50.149a6.524,6.524,0,0,0,6.517-6.517v-8.03a6.524,6.524,0,0,0-6.517-6.517Z" fill="#fff"/>
    <path id="Path_23261" data-name="Path 23261" d="M10.022,59.672A9.533,9.533,0,0,1,.5,50.15V42.12A9.532,9.532,0,0,1,10.022,32.6h16.04a1.513,1.513,0,0,1,1.512,1.512V50.15a9.533,9.533,0,0,1-9.522,9.522Zm0-24.069A6.524,6.524,0,0,0,3.505,42.12v8.029a6.524,6.524,0,0,0,6.517,6.517h8.029a6.524,6.524,0,0,0,6.517-6.517V35.6Z" fill="#fff"/>
    <path id="Path_23262" data-name="Path 23262" d="M42.12,59.672A9.533,9.533,0,0,1,32.6,50.15V34.091a1.513,1.513,0,0,1,1.512-1.512H50.15A9.533,9.533,0,0,1,59.672,42.1v8.048a9.521,9.521,0,0,1-9.521,9.523ZM35.6,35.6V50.149a6.524,6.524,0,0,0,6.517,6.517h8.029a6.524,6.524,0,0,0,6.517-6.517v-8.03A6.524,6.524,0,0,0,50.149,35.6H35.6Z" fill="#fff"/>
  </g>
</svg>
