<svg xmlns="http://www.w3.org/2000/svg" width="53.662" height="42.3" viewBox="0 0 53.662 42.3">
  <g id="camera" transform="translate(0.15 -44.65)">
    <g id="Group_22866" data-name="Group 22866" transform="translate(0 44.8)">
      <g id="Group_22865" data-name="Group 22865" transform="translate(0 0)">
        <path id="Path_22939" data-name="Path 22939" d="M51.587,51.343a5.737,5.737,0,0,0-4.21-1.775h-8.42v-.1a4.554,4.554,0,0,0-1.37-3.3,4.641,4.641,0,0,0-3.3-1.37H19.072a4.676,4.676,0,0,0-4.717,4.667v.1H5.986a5.737,5.737,0,0,0-4.21,1.775A6.031,6.031,0,0,0,0,55.554V80.815a5.737,5.737,0,0,0,1.775,4.21A6.031,6.031,0,0,0,5.986,86.8H47.377a5.737,5.737,0,0,0,4.21-1.775,6.031,6.031,0,0,0,1.775-4.21V55.554A5.737,5.737,0,0,0,51.587,51.343Zm-.862,29.471h-.051a3.291,3.291,0,0,1-3.3,3.3H5.986a3.291,3.291,0,0,1-3.3-3.3V55.554a3.291,3.291,0,0,1,3.3-3.3h9.79a1.364,1.364,0,0,0,1.37-1.37V49.416a1.909,1.909,0,0,1,1.978-1.978H34.29a1.909,1.909,0,0,1,1.978,1.978v1.471a1.364,1.364,0,0,0,1.37,1.37h9.79a3.291,3.291,0,0,1,3.3,3.3Z" transform="translate(0 -44.8)" fill="#93c01f" stroke="#93c01f" stroke-width="0.3"/>
        <path id="Path_22940" data-name="Path 22940" d="M123.317,130.8a11.309,11.309,0,1,0,8,3.312A11.337,11.337,0,0,0,123.317,130.8Zm6.256,17.619a8.885,8.885,0,0,1-12.513,0,8.794,8.794,0,0,1-2.576-6.256,8.99,8.99,0,0,1,2.576-6.256,8.794,8.794,0,0,1,6.256-2.576,8.99,8.99,0,0,1,6.256,2.576,8.794,8.794,0,0,1,2.576,6.256A8.608,8.608,0,0,1,129.573,148.419Z" transform="translate(-96.635 -118.733)" fill="#93c01f" stroke="#93c01f" stroke-width="0.3"/>
        <circle id="Ellipse_2788" data-name="Ellipse 2788" cx="2.486" cy="2.486" r="2.486" transform="translate(42.254 10.855)" fill="#93c01f" stroke="#93c01f" stroke-width="0.3"/>
      </g>
    </g>
  </g>
</svg>
