<svg xmlns="http://www.w3.org/2000/svg" width="63.042" height="55.408" viewBox="0 0 63.042 55.408">
  <g id="Group_23048" data-name="Group 23048" transform="translate(-948 -49)">
    <g id="shopping-cart" transform="translate(948 49)">
      <path id="Path_23245" data-name="Path 23245" d="M20.311,36.939h33.5a1.847,1.847,0,0,0,1.776-1.34L62.971,9.742A1.847,1.847,0,0,0,61.2,7.388H16.052l-1.32-5.941A1.847,1.847,0,0,0,12.928,0H1.847a1.847,1.847,0,1,0,0,3.694h9.6L18.115,33.7a5.54,5.54,0,0,0,2.2,10.625H53.807a1.847,1.847,0,0,0,0-3.694H20.316a1.847,1.847,0,0,1,0-3.693ZM58.746,11.082,52.414,33.245H21.8L16.872,11.082Zm0,0"/>
      <path id="Path_23246" data-name="Path 23246" d="M150,365.541A5.541,5.541,0,1,0,155.541,360,5.547,5.547,0,0,0,150,365.541Zm5.541-1.847a1.847,1.847,0,1,1-1.847,1.847A1.849,1.849,0,0,1,155.541,363.694Zm0,0" transform="translate(-131.531 -315.673)"/>
      <path id="Path_23247" data-name="Path 23247" d="M362,365.541A5.541,5.541,0,1,0,367.541,360,5.547,5.547,0,0,0,362,365.541Zm5.541-1.847a1.847,1.847,0,1,1-1.847,1.847A1.849,1.849,0,0,1,367.541,363.694Zm0,0" transform="translate(-317.427 -315.673)"/>
    </g>
  </g>
</svg>
