<svg width="41" height="41" viewBox="0 0 41 41" fill="none" xmlns="http://www.w3.org/2000/svg">
  <path d="M38 0H3C1.34315 0 0 1.34315 0 3V38C0 39.6569 1.34315 41 3 41H38C39.6569 41 41 39.6569 41 38V3C41 1.34315 39.6569 0 38 0Z" fill="#93C01F"/>
  <path d="M38 0.5H3C1.61929 0.5 0.5 1.61929 0.5 3V38C0.5 39.3807 1.61929 40.5 3 40.5H38C39.3807 40.5 40.5 39.3807 40.5 38V3C40.5 1.61929 39.3807 0.5 38 0.5Z" stroke="#93C01F"/>
  <path d="M15.198 26.784L9.38398 20.97C9.23398 20.8125 9.05356 20.6871 8.85364 20.6015C8.65373 20.5158 8.43852 20.4716 8.22101 20.4716C8.00351 20.4716 7.78824 20.5158 7.58832 20.6015C7.38841 20.6871 7.20798 20.8125 7.05799 20.97C6.90048 21.12 6.77508 21.3005 6.6894 21.5004C6.60371 21.7003 6.55957 21.9155 6.55957 22.133C6.55957 22.3506 6.60371 22.5658 6.6894 22.7657C6.77508 22.9656 6.90048 23.1461 7.05799 23.2961L14.035 30.273C14.185 30.4306 14.3655 30.556 14.5654 30.6416C14.7653 30.7273 14.9805 30.7715 15.198 30.7715C15.4155 30.7715 15.6307 30.7273 15.8306 30.6416C16.0305 30.556 16.211 30.4306 16.361 30.273L33.969 12.664C34.1265 12.5141 34.2519 12.3336 34.3376 12.1337C34.4233 11.9338 34.4675 11.7186 34.4675 11.501C34.4675 11.2835 34.4233 11.0683 34.3376 10.8684C34.2519 10.6685 34.1265 10.488 33.969 10.338C33.819 10.1805 33.6386 10.0551 33.4387 9.96946C33.2387 9.88378 33.0235 9.8396 32.806 9.8396C32.5885 9.8396 32.3733 9.88378 32.1733 9.96946C31.9734 10.0551 31.793 10.1805 31.643 10.338L15.198 26.784Z" fill="white" stroke="white"/>
</svg>
