<svg xmlns="http://www.w3.org/2000/svg" width="79.693" height="79.694" viewBox="0 0 79.693 79.694">
  <path id="cloth" d="M78.647,32.066,57.932,17.792a3.616,3.616,0,0,0-2.839-.564,3.684,3.684,0,0,0-2.368,1.692c-.095.157-.193.312-.293.465l-2.7-1.452a1.329,1.329,0,0,1-.509-.486l-2.663-4.439a3.682,3.682,0,0,0-3.141-1.778H41.012v-.6a1.251,1.251,0,0,1,.708-1.174,4.912,4.912,0,1,0-5.535-7.814,1.167,1.167,0,1,0,1.74,1.557,2.577,2.577,0,1,1,2.9,4.1,3.558,3.558,0,0,0-2.151,3.333v.6H36.267a3.682,3.682,0,0,0-3.141,1.778l-2.663,4.439a1.326,1.326,0,0,1-.51.486l-2.7,1.452c-.1-.153-.2-.308-.293-.465A3.687,3.687,0,0,0,24.6,17.228a3.617,3.617,0,0,0-2.84.564L1.043,32.066a2.418,2.418,0,0,0-.618,3.359L7.5,45.7a2.419,2.419,0,0,0,3.359.618l6.6-4.55V77.28a2.418,2.418,0,0,0,2.416,2.415H59.809a2.418,2.418,0,0,0,2.415-2.415V41.767l6.6,4.55a2.418,2.418,0,0,0,3.359-.619l7.08-10.274a2.418,2.418,0,0,0-.618-3.359ZM31.06,19.989a3.663,3.663,0,0,0,1.4-1.34l2.663-4.439a1.336,1.336,0,0,1,1.139-.645h7.156a1.336,1.336,0,0,1,1.139.645l2.663,4.439a3.663,3.663,0,0,0,1.4,1.34l2.362,1.272a15.018,15.018,0,0,1-2.368,2.125L44.912,21.9a13.592,13.592,0,0,0-10.135,0l-3.711,1.485A14.965,14.965,0,0,1,28.7,21.261Zm15,4.884a15.17,15.17,0,0,1-12.422,0l2.011-.8a11.267,11.267,0,0,1,8.4,0ZM9.539,44.395a.08.08,0,0,1-.112-.021L2.347,34.1a.075.075,0,0,1-.013-.06.077.077,0,0,1,.033-.052l15.1-10.4V38.932ZM77.343,34.1l-7.08,10.274a.08.08,0,0,1-.112.02l-7.927-5.462V36.1a1.167,1.167,0,1,0-2.335,0V72.369H57.313a1.167,1.167,0,0,0,0,2.335h2.576V77.28a.08.08,0,0,1-.08.08H19.881a.08.08,0,0,1-.08-.08V74.7H52.323a1.167,1.167,0,0,0,0-2.335H19.8V21.975l3.281-2.261a1.307,1.307,0,0,1,1.024-.2,1.323,1.323,0,0,1,.86.616,17.366,17.366,0,0,0,29.758,0,1.321,1.321,0,0,1,.86-.616,1.3,1.3,0,0,1,1.024.2l3.281,2.261v9.138a1.167,1.167,0,1,0,2.335,0V23.584l15.1,10.4a.081.081,0,0,1,.021.112Zm0,0" transform="translate(0.001 -0.001)"/>
</svg>
