<svg xmlns="http://www.w3.org/2000/svg" width="72.338" height="72.338" viewBox="0 0 72.338 72.338">
  <g id="Group_23013" data-name="Group 23013" transform="translate(-48 -1317.457)">
    <path id="Path_23196" data-name="Path 23196" d="M31,9h2.41V13.82H31Z" transform="translate(51.963 1316.896)" fill="#d5883e"/>
    <path id="Path_23197" data-name="Path 23197" d="M40,6H52.056v9.645H40Z" transform="translate(53.814 1316.279)" fill="#f0ae42"/>
    <path id="Path_23198" data-name="Path 23198" d="M31,2H46.673v9.645H31Z" transform="translate(51.963 1315.457)" fill="#f9d266"/>
    <path id="Path_23199" data-name="Path 23199" d="M8,18H65.87v7.234H8Z" transform="translate(47.234 1318.747)" fill="#4c506e"/>
    <path id="Path_23200" data-name="Path 23200" d="M74.338,31.234,67.1,24H9.234L2,31.234Z" transform="translate(46 1319.981)" fill="#363a4f"/>
    <path id="Path_23201" data-name="Path 23201" d="M3,30H72.926V54.113H3Z" transform="translate(46.206 1321.215)" fill="#c8cded"/>
    <path id="Path_23202" data-name="Path 23202" d="M3,50H72.926V64.468H3Z" transform="translate(46.206 1325.327)" fill="#787faa"/>
    <path id="Path_23203" data-name="Path 23203" d="M19,32H50.346V58.524H19Z" transform="translate(49.496 1321.626)" fill="#e2e7f6"/>
    <path id="Path_23204" data-name="Path 23204" d="M15,62.823V58H55.991v4.823" transform="translate(48.673 1326.972)" fill="#363a4f"/>
    <path id="Path_23205" data-name="Path 23205" d="M17,58.823V54H53.169v4.823" transform="translate(49.084 1326.15)" fill="#4c506e"/>
    <path id="Path_23206" data-name="Path 23206" d="M17,28H53.169v4.823H17Z" transform="translate(49.084 1320.803)" fill="#9da1bf"/>
    <path id="Path_23207" data-name="Path 23207" d="M19,31.29V24.056L34.673,12,50.346,24.056V31.29" transform="translate(49.496 1317.513)" fill="#787faa"/>
    <path id="Path_23208" data-name="Path 23208" d="M23,30.262V25.439L33.851,17,44.7,25.439v4.823" transform="translate(50.318 1318.542)" fill="#e2e7f6"/>
    <path id="Path_23209" data-name="Path 23209" d="M7,36h9.645v7.234H7Z" transform="translate(47.028 1322.448)" fill="#e2e7f6"/>
    <path id="Path_23210" data-name="Path 23210" d="M49,36h9.645v7.234H49Z" transform="translate(55.665 1322.448)" fill="#e2e7f6"/>
    <path id="Path_23211" data-name="Path 23211" d="M27,56.879V46.028a6.028,6.028,0,1,1,12.056,0V56.879" transform="translate(51.141 1323.271)" fill="#9da1bf"/>
    <g id="Group_23002" data-name="Group 23002" transform="translate(72.113 1357.241)">
      <path id="Path_23212" data-name="Path 23212" d="M22,35h2.41v2.41H22Z" transform="translate(-22 -34.999)" fill="#787faa"/>
      <path id="Path_23213" data-name="Path 23213" d="M26,35h2.41v2.41H26Z" transform="translate(-21.177 -34.999)" fill="#787faa"/>
      <path id="Path_23214" data-name="Path 23214" d="M40,35h2.41v2.41H40Z" transform="translate(-18.299 -34.999)" fill="#787faa"/>
      <path id="Path_23215" data-name="Path 23215" d="M36,35h2.41v2.41H36Z" transform="translate(-19.121 -34.999)" fill="#787faa"/>
    </g>
    <path id="Path_23216" data-name="Path 23216" d="M36.573,41.173A6.006,6.006,0,0,0,27,46.028V56.879h3.649A25.61,25.61,0,0,0,36.573,41.173Z" transform="translate(51.141 1323.271)" fill="#c8cded"/>
  </g>
</svg>
