<svg xmlns="http://www.w3.org/2000/svg" width="51.81" height="68.018" viewBox="0 0 51.81 68.018">
  <g id="Group_23017" data-name="Group 23017" transform="translate(-60.344 -1621.982)">
    <path id="Path_23217" data-name="Path 23217" d="M96.869,0H62.993A1.993,1.993,0,0,0,61,1.993V66.025a1.993,1.993,0,0,0,1.993,1.993h47.825a1.993,1.993,0,0,0,1.993-1.993V15.942Z" transform="translate(-0.656 1621.982)" fill="#52c3ff"/>
    <path id="Path_23218" data-name="Path 23218" d="M256,0V68.018h23.913a1.993,1.993,0,0,0,1.993-1.993V15.942L265.964,0Z" transform="translate(-169.751 1621.982)" fill="#2da8fa"/>
    <path id="Path_23219" data-name="Path 23219" d="M346.942,15.942H332.993A1.993,1.993,0,0,1,331,13.949V0Z" transform="translate(-234.787 1621.982)" fill="#0078e6"/>
    <path id="Path_23220" data-name="Path 23220" d="M305.964,347.6a1.99,1.99,0,0,1-1.105-.335l-2.88-1.92-2.88,1.92A1.993,1.993,0,0,1,296,345.6V333.9a1.993,1.993,0,0,1,1.993-1.993h7.971a1.993,1.993,0,0,1,1.993,1.993v11.7a1.992,1.992,0,0,1-1.993,1.993Z" transform="translate(-204.437 1334.168)" fill="#fc4722"/>
    <g id="Group_23012" data-name="Group 23012" transform="translate(66.986 1629.952)">
      <path id="Path_23221" data-name="Path 23221" d="M123.62,363.985H112.993a1.993,1.993,0,1,1,0-3.985H123.62a1.993,1.993,0,0,1,0,3.985Z" transform="translate(-111 -320.145)" fill="#f0f0ff"/>
      <path id="Path_23222" data-name="Path 23222" d="M123.62,423.985H112.993a1.993,1.993,0,1,1,0-3.985H123.62a1.993,1.993,0,1,1,0,3.985Z" transform="translate(-111 -372.174)" fill="#f0f0ff"/>
      <path id="Path_23223" data-name="Path 23223" d="M118.307,79.927H115.65a4.655,4.655,0,0,1-4.65-4.65V64.65A4.655,4.655,0,0,1,115.65,60h2.657a4.655,4.655,0,0,1,4.65,4.65,1.993,1.993,0,0,1-3.985,0,.665.665,0,0,0-.664-.664H115.65a.665.665,0,0,0-.664.664V75.277a.665.665,0,0,0,.664.664h2.657a.665.665,0,0,0,.664-.664,1.993,1.993,0,0,1,3.985,0A4.655,4.655,0,0,1,118.307,79.927Z" transform="translate(-111 -59.999)" fill="#f0f0ff"/>
      <path id="Path_23224" data-name="Path 23224" d="M216.975,79.923a1.993,1.993,0,0,1-1.933-1.509l-3.985-15.942a1.993,1.993,0,0,1,3.866-.966l2.052,8.209,2.052-8.209a1.993,1.993,0,0,1,3.866.966l-3.985,15.942A1.993,1.993,0,0,1,216.975,79.923Z" transform="translate(-197.712 -59.995)" fill="#f0f0ff"/>
    </g>
    <path id="Path_23225" data-name="Path 23225" d="M275.964,239.927a9.964,9.964,0,1,1,9.964-9.964A9.975,9.975,0,0,1,275.964,239.927Z" transform="translate(-178.422 1431.208)" fill="#ffc833"/>
    <path id="Path_23226" data-name="Path 23226" d="M257.933,78.415l3.985-15.942a1.993,1.993,0,0,0-3.866-.966L256,69.715V79.924A1.993,1.993,0,0,0,257.933,78.415Z" transform="translate(-169.751 1569.956)" fill="#d7d7eb"/>
  </g>
</svg>
