<svg xmlns="http://www.w3.org/2000/svg" width="68.485" height="47.313" viewBox="0 0 68.485 47.313">
  <g id="Group_23187" data-name="Group 23187" transform="translate(-2 -80.521)">
    <path id="Path_23527" data-name="Path 23527" d="M332.582,323.265a8.431,8.431,0,1,1,8.431-8.431A8.44,8.44,0,0,1,332.582,323.265Zm0-13.051a4.62,4.62,0,1,0,4.62,4.62A4.625,4.625,0,0,0,332.582,310.214Z" transform="translate(-278.721 -195.43)"/>
    <path id="Path_23528" data-name="Path 23528" d="M112.078,323.265a8.431,8.431,0,1,1,8.431-8.431A8.44,8.44,0,0,1,112.078,323.265Zm0-13.051a4.62,4.62,0,1,0,4.62,4.62A4.625,4.625,0,0,0,112.078,310.214Z" transform="translate(-87.944 -195.43)"/>
    <path id="Path_23529" data-name="Path 23529" d="M342.767,116.6H332.756V112.79h11.186a1.9,1.9,0,0,1,1.7,1.049l6.4,12.737-3.406,1.712Z" transform="translate(-286.166 -27.919)"/>
    <rect id="Rectangle_17482" data-name="Rectangle 17482" width="15.919" height="3.811" transform="translate(31.147 117.571)"/>
    <path id="Path_23530" data-name="Path 23530" d="M49.62,359.156a1.905,1.905,0,0,1,0-3.811h7.54a1.905,1.905,0,1,1,0,3.811Z" transform="translate(-39.552 -237.774)"/>
    <path id="Path_23531" data-name="Path 23531" d="M99.938,121.381a1.905,1.905,0,1,1,0-3.811h6.288V105.99l-3.305-4.258H85.872a1.908,1.908,0,0,1-1.905-1.905v-15.5H49.62a1.905,1.905,0,0,1,0-3.811H85.873a1.908,1.908,0,0,1,1.905,1.905v15.5h16.076a1.915,1.915,0,0,1,1.5.737l4.279,5.511a1.916,1.916,0,0,1,.4,1.169v14.138a1.908,1.908,0,0,1-1.906,1.905Z" transform="translate(-39.552)"/>
    <path id="Path_23532" data-name="Path 23532" d="M30.258,277.408a1.905,1.905,0,0,1,0-3.811H40.264a1.905,1.905,0,0,1,0,3.811Z" transform="translate(-22.8 -167.047)"/>
    <path id="Path_23533" data-name="Path 23533" d="M3.905,213.945a1.906,1.906,0,0,1,0-3.811H22.467a1.906,1.906,0,0,1,0,3.811Z" transform="translate(0 -112.14)"/>
    <path id="Path_23534" data-name="Path 23534" d="M30.258,150.483a1.905,1.905,0,0,1,0-3.811H48.82a1.905,1.905,0,1,1,0,3.811Z" transform="translate(-22.8 -57.233)"/>
  </g>
</svg>
