<svg xmlns="http://www.w3.org/2000/svg" width="47.432" height="73.027" viewBox="0 0 47.432 73.027">
  <g id="Group_23015" data-name="Group 23015" transform="translate(-59.961 -1422.261)">
    <path id="XMLID_2832_" d="M168.519,313.5H158.466a13.582,13.582,0,0,0-4.324.7l5.329,8.273,9.048,6.1,1.436-7.54Z" transform="translate(-84.841 1153.785)" fill="#fff5f5"/>
    <path id="XMLID_1447_" d="M268.626,314.2a13.585,13.585,0,0,0-4.324-.7H254.249v15.079l8.4-5.96Z" transform="translate(-170.572 1153.785)" fill="#e4e4ff"/>
    <g id="XMLID_590_" transform="translate(100.911 1436.981)">
      <path id="XMLID_2795_" d="M378.557,120.559h-4.308V105.542L376.4,102.5l2.154.679Z" transform="translate(-374.249 -102.498)" fill="#283366"/>
    </g>
    <g id="XMLID_589_" transform="translate(59.961 1422.261)">
      <path id="XMLID_2778_" d="M123.619,21.292H102.031L89.109,14.2,112.825,0l23.716,14.2Z" transform="translate(-89.109 0)" fill="#4d4d8c"/>
    </g>
    <path id="XMLID_2773_" d="M180.5,88.5h-6.654a9.609,9.609,0,0,0-9.6,9.6v3.327l12.925,1.867,12.925-1.867c0-3.394.006-3.463-.013-3.818A9.61,9.61,0,0,0,180.5,88.5Z" transform="translate(-93.497 1346.472)" fill="#283366"/>
    <path id="XMLID_1550_" d="M278.387,349.275l-20.138,17.84,1.58,5.026h21.542V357.78A13.576,13.576,0,0,0,278.387,349.275Z" transform="translate(-173.997 1123.146)" fill="#283366"/>
    <path id="XMLID_1482_" d="M92.233,349.275a13.576,13.576,0,0,0-2.984,8.505v14.326h21.542l1.364-5.44Z" transform="translate(-29.268 1123.146)" fill="#4d4d8c"/>
    <path id="XMLID_2803_" d="M116.362,318.391a13.692,13.692,0,0,0-6.335,4.435l18.558,18.558v4.308h2.154l1.221-6.463-1.221-6.463Z" transform="translate(-47.062 1149.595)" fill="#ffdc75"/>
    <path id="XMLID_2804_" d="M274.961,322.826a13.694,13.694,0,0,0-6.336-4.436l-14.377,14.377v12.925H256.4v-4.308Z" transform="translate(-170.572 1149.596)" fill="#ffc649"/>
    <path id="XMLID_2796_" d="M164.249,184.961a12.925,12.925,0,1,0,25.85,0V178.5h-25.85Z" transform="translate(-93.497 1269.397)" fill="#f1ccbd"/>
  </g>
</svg>
