<svg xmlns="http://www.w3.org/2000/svg" width="60.389" height="54.646" viewBox="0 0 60.389 54.646">
  <path id="tv" d="M9.272,55.148a1.3,1.3,0,0,1-.212-2.582l20.394-4.338V42.574H4.2a3.7,3.7,0,0,1-3.7-3.7V4.2A3.7,3.7,0,0,1,4.2.5H57.4A3.7,3.7,0,0,1,60.889,4.2V38.87a3.7,3.7,0,0,1-3.7,3.7H32.051v5.67l20.608,4.322a1.3,1.3,0,0,1-.341,2.554A1.41,1.41,0,0,1,52.1,55.1L30.716,50.614S9.533,55.123,9.5,55.129A1.3,1.3,0,0,1,9.272,55.148ZM3.1,38.876a1.1,1.1,0,0,0,1.1,1.1H57.189a1.107,1.107,0,0,0,1.1-1.1V34.686H3.1ZM4.2,3.1A1.1,1.1,0,0,0,3.1,4.2V32.087H58.289V4.2a1.1,1.1,0,0,0-1.1-1.1Z" transform="translate(-0.5 -0.502)"/>
</svg>
