<svg xmlns="http://www.w3.org/2000/svg" width="36.734" height="33.9" viewBox="0 0 36.734 33.9">
  <path id="_002-filter" data-name="002-filter" d="M35.589,10.3a1.082,1.082,0,0,0-.979-.62H1.081a1.082,1.082,0,0,0-.835,1.77L13.136,27.086V41.5a1.082,1.082,0,0,0,1.562.969l7.242-3.589a1.082,1.082,0,0,0,.6-.968l.014-10.827,12.89-15.634A1.081,1.081,0,0,0,35.589,10.3ZM20.639,26.009a1.081,1.081,0,0,0-.247.687L20.379,37.24,15.3,39.757V26.7a1.081,1.081,0,0,0-.247-.688L3.375,11.846H32.317Z" transform="translate(0.521 -9.183)" stroke="#000" stroke-width="1"/>
</svg>
