<svg xmlns="http://www.w3.org/2000/svg" width="62.902" height="70.152" viewBox="0 0 62.902 70.152">
  <g id="_014-food" data-name="014-food" transform="translate(-5.991 -2.997)">
    <path id="Path_23242" data-name="Path 23242" d="M11.354,20.415a1.207,1.207,0,0,0,1.534-.758L15.682,11.4a1.209,1.209,0,1,0-2.291-.775L10.6,18.882a1.209,1.209,0,0,0,.758,1.533Z" transform="translate(0.951 1.425)"/>
    <path id="Path_23243" data-name="Path 23243" d="M13.683,29.109a1.207,1.207,0,0,0,1.533-.758l2.8-8.261a1.209,1.209,0,1,0-2.291-.775l-2.8,8.261A1.209,1.209,0,0,0,13.683,29.109Z" transform="translate(1.439 3.245)"/>
    <path id="Path_23244" data-name="Path 23244" d="M67.683,33.237a4.429,4.429,0,0,0-2.833.973c1.4-6.259-.812-11.94-5.221-13.121a6.439,6.439,0,0,0-3.71.15,4.555,4.555,0,0,1,1.236-1.725,4.026,4.026,0,0,1,3.25-.732,1.209,1.209,0,1,0,.327-2.4,6.382,6.382,0,0,0-5.11,1.258,7.2,7.2,0,0,0-2.093,3.049,6.47,6.47,0,0,0-3.245-2.107,6.934,6.934,0,0,0-5.408.907,11.762,11.762,0,0,0-5.01-4.024V12.676a1.209,1.209,0,0,0,1.209-1.209V6.629A1.209,1.209,0,0,0,39.866,5.42H30.191a1.209,1.209,0,0,0-1.209,1.209v4.838a1.209,1.209,0,0,0,1.209,1.209v2.791a11.771,11.771,0,0,0-5.589,4.9C21,11.014,15.528,1.776,10.49,3.129c-2.79.747-4.338,4.517-4.479,10.9A76.011,76.011,0,0,0,8.619,33.453,4.6,4.6,0,0,0,7.2,33.237a1.209,1.209,0,0,0-1.209,1.209V71.939A1.209,1.209,0,0,0,7.2,73.148H67.683a1.209,1.209,0,0,0,1.209-1.209V34.446A1.209,1.209,0,0,0,67.683,33.237ZM49.658,20.921A4.983,4.983,0,0,1,52.8,24.144a1.209,1.209,0,0,0,1.876.5A4.99,4.99,0,0,1,59,23.425c3.165.848,4.694,5.845,3.337,10.91a14.739,14.739,0,0,1-.763,2.119c-.9-.017-1.349-.433-2.091-1.224a4.823,4.823,0,0,0-7.813,0c-.758.809-1.2,1.23-2.141,1.23s-1.382-.422-2.141-1.23a5.046,5.046,0,0,0-3.9-1.994,4.381,4.381,0,0,0-2.567.786,13.778,13.778,0,0,1,.391-5.322C42.669,23.637,46.473,20.069,49.658,20.921ZM31.4,7.839h7.257v2.419H31.4Zm.383,9.613A1.209,1.209,0,0,0,32.61,16.3V12.676h4.838V16.3a1.209,1.209,0,0,0,.827,1.147,9.334,9.334,0,0,1,4.69,3.516,15.486,15.486,0,0,0-3.988,7.108,15.576,15.576,0,0,0-.149,7.879,2.022,2.022,0,0,1-1.382.507c-.943,0-1.383-.422-2.141-1.231a4.819,4.819,0,0,0-7.809,0c-.757.809-1.2,1.23-2.139,1.23h0V26.373A9.392,9.392,0,0,1,31.783,17.452ZM11.116,5.465c2.554-.679,7.9,6.109,12.145,18.282a11.785,11.785,0,0,0-.327,2.626v8.566a4.777,4.777,0,0,0-3.628-1.7A5.055,5.055,0,0,0,15.4,35.231c-.758.809-1.2,1.231-2.145,1.231a2.064,2.064,0,0,1-1.478-.582c-.159-.552-.317-1.1-.468-1.667A75.3,75.3,0,0,1,8.43,14.085C8.559,8.226,9.9,5.79,11.116,5.465ZM8.41,36.012a6.192,6.192,0,0,1,.934.874,5.055,5.055,0,0,0,3.908,1.994,5.055,5.055,0,0,0,3.909-1.994c.758-.809,1.2-1.231,2.144-1.231s1.383.422,2.141,1.23a4.82,4.82,0,0,0,7.811,0c.758-.809,1.2-1.23,2.141-1.23s1.382.422,2.141,1.23a4.82,4.82,0,0,0,7.811,0c.758-.809,1.2-1.23,2.141-1.23s1.382.422,2.141,1.23a4.819,4.819,0,0,0,7.809,0,6.13,6.13,0,0,1,.931-.862V70.73H8.412ZM66.474,70.73H56.788V36.022a6.1,6.1,0,0,1,.934.864,4.828,4.828,0,0,0,7.818,0,6.2,6.2,0,0,1,.934-.874Z" transform="translate(0 0)"/>
  </g>
</svg>
