<svg id="rating" xmlns="http://www.w3.org/2000/svg" width="35.457" height="35.518" viewBox="0 0 35.457 35.518">
  <path id="Path_23248" data-name="Path 23248" d="M29.467,14.608l-7.941,8.134,1.867,11.512a1.112,1.112,0,0,1-1.63,1.156L12,30V.03a1.067,1.067,0,0,1,1.007.593l4.9,10.445L28.83,12.727a1.123,1.123,0,0,1,.637,1.882Z" transform="translate(5.68 -0.03)" fill="#e9e9e9"/>
  <path id="Path_23249" data-name="Path 23249" d="M17.778.03V30L8.015,35.409a1.111,1.111,0,0,1-1.63-1.156L8.252,22.742.311,14.608a1.122,1.122,0,0,1,.637-1.882l10.919-1.659L16.771.623A1.067,1.067,0,0,1,17.778.03Z" transform="translate(-0.001 -0.03)" fill="#ffc400"/>
</svg>
