<svg xmlns="http://www.w3.org/2000/svg" width="45.048" height="40.122" viewBox="0 0 45.048 40.122">
  <path id="heart-outlined" d="M22.324,39.722a2.618,2.618,0,0,1-1.726-.649c-1.8-1.577-3.543-3.059-5.077-4.367l-.008-.007c-4.5-3.833-8.382-7.143-11.085-10.4C1.407,20.65,0,17.194,0,13.418A13.955,13.955,0,0,1,3.542,3.887,12.006,12.006,0,0,1,12.473,0a11.23,11.23,0,0,1,7.015,2.422,14.352,14.352,0,0,1,2.836,2.961A14.354,14.354,0,0,1,25.16,2.422,11.23,11.23,0,0,1,32.175,0a12.006,12.006,0,0,1,8.931,3.887,13.954,13.954,0,0,1,3.542,9.531c0,3.776-1.407,7.232-4.428,10.877-2.7,3.261-6.586,6.571-11.084,10.4-1.537,1.309-3.279,2.794-5.086,4.375a2.62,2.62,0,0,1-1.726.648ZM12.473,2.615A9.419,9.419,0,0,0,5.464,5.66a11.352,11.352,0,0,0-2.849,7.758c0,3.176,1.18,6.016,3.827,9.209C9,25.713,12.8,28.955,17.209,32.71l.008.007c1.54,1.312,3.286,2.8,5.1,4.389,1.828-1.592,3.576-3.082,5.119-4.4,4.4-3.754,8.209-7,10.767-10.082,2.646-3.193,3.826-6.033,3.826-9.209A11.351,11.351,0,0,0,39.183,5.66a9.419,9.419,0,0,0-7.008-3.045A8.674,8.674,0,0,0,26.76,4.49a12.691,12.691,0,0,0-3.018,3.492,1.651,1.651,0,0,1-2.836,0A12.679,12.679,0,0,0,17.888,4.49a8.674,8.674,0,0,0-5.415-1.875Zm0,0" transform="translate(0.2 0.2)" stroke="#000" stroke-width="0.4"/>
</svg>
