<svg xmlns="http://www.w3.org/2000/svg" width="45.048" height="40.122" viewBox="0 0 45.048 40.122">
  <path id="heart-filled" d="M22.324,39.722a2.618,2.618,0,0,1-1.726-.649c-1.8-1.577-3.543-3.059-5.077-4.367l-.008-.007c-4.5-3.833-8.382-7.143-11.085-10.4C1.407,20.65,0,17.194,0,13.418A13.955,13.955,0,0,1,3.542,3.887,12.006,12.006,0,0,1,12.473,0a11.23,11.23,0,0,1,7.015,2.422,14.352,14.352,0,0,1,2.836,2.961A14.354,14.354,0,0,1,25.16,2.422,11.23,11.23,0,0,1,32.175,0a12.006,12.006,0,0,1,8.931,3.887,13.954,13.954,0,0,1,3.542,9.531c0,3.776-1.407,7.232-4.428,10.877-2.7,3.261-6.586,6.571-11.084,10.4-1.537,1.309-3.279,2.794-5.086,4.375a2.62,2.62,0,0,1-1.726.648Z" transform="translate(0.2 0.2)" fill="#ff1059" stroke="#ff1059" stroke-width="0.4"/>
</svg>
