<svg xmlns="http://www.w3.org/2000/svg" xmlns:xlink="http://www.w3.org/1999/xlink" width="984" height="532.498" viewBox="0 0 984 532.498">
  <defs>
    <clipPath id="clip-path">
      <circle id="Ellipse_2846" data-name="Ellipse 2846" cx="22.749" cy="22.749" r="22.749" fill="none"/>
    </clipPath>
  </defs>
  <g id="hobbies" transform="translate(0 -62)">
    <g id="BACKGROUND">
      <g id="Group_23081" data-name="Group 23081">
        <rect id="Rectangle_17459" data-name="Rectangle 17459" width="984" height="532" rx="30" transform="translate(0 62)" fill="#71a9f2" opacity="0.18"/>
        <path id="Path_23487" data-name="Path 23487" d="M0-40H984V85.844a30,30,0,0,1-30,30H30a30,30,0,0,1-30-30Z" transform="translate(0 478.653)" fill="#8b9ae5" opacity="0.08"/>
      </g>
    </g>
    <g id="OBJECTS" transform="translate(50.845 115.868)">
      <g id="Group_23082" data-name="Group 23082" transform="translate(475.082)">
        <path id="Path_23273" data-name="Path 23273" d="M410.156,90.67l2.873,5.821,6.424.933-4.648,4.531,1.1,6.4-5.746-3.021-5.746,3.021,1.1-6.4-4.648-4.531,6.424-.933Z" transform="translate(-400.859 -87.579)" fill="#ecb751"/>
        <path id="Path_23274" data-name="Path 23274" d="M433.864,131.872l1.459,2.955,3.261.474-2.36,2.3.557,3.248-2.917-1.534-2.917,1.534.557-3.248-2.36-2.3,3.261-.474Z" transform="translate(-392.034 -74.724)" fill="#ecb751"/>
        <path id="Path_23275" data-name="Path 23275" d="M453.15,88.314l1.458,2.955,3.261.474-2.36,2.3.557,3.248-2.917-1.534-2.917,1.534.557-3.248-2.36-2.3,3.261-.474Z" transform="translate(-386.017 -88.314)" fill="#ecb751"/>
        <circle id="Ellipse_2836" data-name="Ellipse 2836" cx="1.807" cy="1.807" r="1.807" transform="translate(11.104 44.496)" fill="#ecb751"/>
        <circle id="Ellipse_2837" data-name="Ellipse 2837" cx="1.807" cy="1.807" r="1.807" transform="translate(40.022 14.674)" fill="#ecb751"/>
        <circle id="Ellipse_2838" data-name="Ellipse 2838" cx="1.807" cy="1.807" r="1.807" transform="translate(68.037 39.977)" fill="#ecb751"/>
      </g>
      <g id="Group_23090" data-name="Group 23090" transform="translate(185.578 33.043)">
        <path id="Path_23488" data-name="Path 23488" d="M72.767,0c40.188,0,72.767,5.787,72.767,12.926S112.954,25.851,72.767,25.851,0,20.064,0,12.926,32.579,0,72.767,0Z" transform="translate(0 353.765)" fill="#e5f0fd"/>
        <ellipse id="Ellipse_2840" data-name="Ellipse 2840" cx="72.767" cy="15.534" rx="72.767" ry="15.534" transform="translate(160.931 335.144)" fill="#e5f0fd"/>
        <g id="Group_23089" data-name="Group 23089" transform="translate(4.507)">
          <g id="Group_23083" data-name="Group 23083" transform="translate(174.583)">
            <ellipse id="Ellipse_2841" data-name="Ellipse 2841" cx="25.136" cy="24.811" rx="25.136" ry="24.811" transform="translate(54.353 31.907) rotate(-39.397)" fill="#8bcde5"/>
            <path id="Path_23276" data-name="Path 23276" d="M428.434,165.9l-23.856-49.081-35.034,24.12,1.206,2.089-31.939,17.56a14.747,14.747,0,0,0-7.305,15.84l-8.528,4.976a6.541,6.541,0,0,0-2.345,8.92l2.952,5.058a6.54,6.54,0,0,0,8.919,2.345l7.6-4.437a14.738,14.738,0,0,0,19.216,4.605l32.7-17.978.588,1.018Z" transform="translate(-315.752 -112.462)" fill="#2b3448"/>
            <path id="Path_23277" data-name="Path 23277" d="M333.186,181.3c1.292-.556,3.809-1.13,4.776-2.216,1.085-1.219.773-3.52.959-4.978.252-1.957.451-3.39,1.752-4.963,3.272-3.956,9-6.934,13.385-9.406,5.569-3.14,11.382-5.831,17.216-8.435,13.748-6.134,27.1-12.974,40.177-20.319l-6.88-14.156-35.034,24.12,1.206,2.089L338.8,160.592a14.747,14.747,0,0,0-7.305,15.84l-8.528,4.976a6.51,6.51,0,0,0-3.193,5.88C324.232,185.234,328.713,183.219,333.186,181.3Z" transform="translate(-315.744 -112.462)" fill="#fff" opacity="0.19"/>
            <path id="Path_23278" data-name="Path 23278" d="M359.8,134.441l23.527,41.394-3.921,2.3-22.967-41.394Z" transform="translate(-304.303 -106.966)" fill="#de6c6b"/>
            <path id="Path_23279" data-name="Path 23279" d="M329.767,183.9l-9.784-17.215q-1.651,1.364-3.281,2.755l9.112,16.422Q327.776,184.852,329.767,183.9Z" transform="translate(-316.702 -96.905)" fill="#de6c6b"/>
            <path id="Path_23280" data-name="Path 23280" d="M410.362,170.214h0a2.233,2.233,0,0,1-3.006-.942L380.832,118.51a2.234,2.234,0,0,1,.943-3.006h0a2.234,2.234,0,0,1,3.006.942l26.525,50.764A2.233,2.233,0,0,1,410.362,170.214Z" transform="translate(-296.772 -112.953)" fill="#de6c6b"/>
            <path id="Path_23281" data-name="Path 23281" d="M320.467,447.193h0a3.174,3.174,0,0,1-2.716-3.554l36.039-269.616a3.173,3.173,0,0,1,3.554-2.717h0a3.173,3.173,0,0,1,2.716,3.554L324.022,444.477A3.171,3.171,0,0,1,320.467,447.193Z" transform="translate(-316.383 -95.473)" fill="#2b3448"/>
            <path id="Path_23282" data-name="Path 23282" d="M400.841,445.77l-.434.05a3.426,3.426,0,0,1-3.777-3.01L365.645,168.957a3.427,3.427,0,0,1,3.01-3.779l.434-.049a3.424,3.424,0,0,1,3.777,3.01l30.984,273.852A3.424,3.424,0,0,1,400.841,445.77Z" transform="translate(-301.439 -97.397)" fill="#2b3448"/>
            <path id="Path_23283" data-name="Path 23283" d="M395.469,288.309H334.692a3.244,3.244,0,0,1-3.234-3.233h0a3.244,3.244,0,0,1,3.234-3.234h60.777a3.243,3.243,0,0,1,3.234,3.234h0A3.243,3.243,0,0,1,395.469,288.309Z" transform="translate(-312.098 -60.977)" fill="#2b3448"/>
          </g>
          <g id="Group_23088" data-name="Group 23088" transform="translate(0 46.002)">
            <path id="Path_23284" data-name="Path 23284" d="M309.794,149.879s-14.962-7.695-26.5,14.107c0,0-5.558,25.221-18.382,21.374s-25.221,32.915,5.558,39.755S327.32,182.367,309.794,149.879Z" transform="translate(-162.544 -148.562)" fill="#2b3448"/>
            <ellipse id="Ellipse_2842" data-name="Ellipse 2842" cx="11.443" cy="15.258" rx="11.443" ry="15.258" transform="translate(154.874 74.079)" fill="#f2df8f"/>
            <path id="Path_23285" data-name="Path 23285" d="M240.988,261.666c-1.026.526-7.343,12.989-20.911,83.618,0,0,.52,16.8,17.56,11.132,0,0,36.634-66.989,37.608-71.332S266.9,248.4,240.988,261.666Z" transform="translate(-172.266 -114.264)" fill="#74471b"/>
            <path id="Path_23286" data-name="Path 23286" d="M189.227,392.553l11.341,6.136s50.093-57.694,48.376-68.826S224.776,310.044,189.227,392.553Z" transform="translate(-181.892 -94.19)" fill="#74471b"/>
            <path id="Path_23287" data-name="Path 23287" d="M227.56,276.079c-.3,1.113,4.647,14.18,47.682,71.8,0,0,12.764,10.941,20.058-5.471,0,0-24.8-72.211-27.353-75.857S235.219,248,227.56,276.079Z" transform="translate(-169.936 -114)" fill="#74471b"/>
            <path id="Path_23288" data-name="Path 23288" d="M252.781,402.083l12.764,1.824s26.988-71.482,21.517-81.33S257.523,312.366,252.781,402.083Z" transform="translate(-162.063 -95.625)" fill="#74471b"/>
            <path id="Path_23289" data-name="Path 23289" d="M213.317,381.163c14.634-17.939,34.789-44.171,33.688-51.3-1.582-10.256-20.761-18.434-51.566,44.852Q204.329,378.076,213.317,381.163Z" transform="translate(-179.953 -94.19)" fill="#2b3448" opacity="0.29"/>
            <path id="Path_23290" data-name="Path 23290" d="M269.48,392.628c7.329-20.549,21.508-62.66,17.4-70.052-5.222-9.4-27.392-10.152-33.519,67.842C258.7,391.378,264.092,391.987,269.48,392.628Z" transform="translate(-161.881 -95.625)" fill="#2b3448" opacity="0.29"/>
            <path id="Path_23291" data-name="Path 23291" d="M322.529,169.751h0a22.033,22.033,0,1,0-31.851,22.7c.366,7.721-2.892,15.594,9.816,15.428C300.492,207.879,331.637,215.918,322.529,169.751Z" transform="translate(-153.983 -147.858)" fill="#74471b"/>
            <path id="Path_23292" data-name="Path 23292" d="M292.31,210.005l8.924-13.171L289.2,181.881l-12.035,17.141S278.281,208.225,292.31,210.005Z" transform="translate(-154.456 -138.166)" fill="#74471b"/>
            <path id="Path_23293" data-name="Path 23293" d="M281.7,203.864a22.657,22.657,0,0,0,9.191,2.993l8.924-13.171-1.38-1.715A86.111,86.111,0,0,1,281.7,203.864Z" transform="translate(-153.039 -135.018)" fill="#2b3448" opacity="0.4"/>
            <path id="Path_23294" data-name="Path 23294" d="M313.724,173.078s3.451,5.424,3.7,6.9-2.465,3.452-5.177,3.944S313.724,173.078,313.724,173.078Z" transform="translate(-143.795 -140.913)" fill="#74471b"/>
            <path id="Path_23295" data-name="Path 23295" d="M311.216,174.5c0,1.5-.634,2.712-1.416,2.712s-1.416-1.214-1.416-2.712.634-2.713,1.416-2.713S311.216,173,311.216,174.5Z" transform="translate(-144.714 -141.316)" fill="#2b3448"/>
            <path id="Path_23296" data-name="Path 23296" d="M306.391,171.48a6.25,6.25,0,0,1,5.916-2.712" transform="translate(-145.336 -142.273)" fill="none" stroke="#2b3448" stroke-width="0.922"/>
            <path id="Path_23297" data-name="Path 23297" d="M306.391,186.043a8.592,8.592,0,0,0,6.409,1.972" transform="translate(-145.336 -136.868)" fill="none" stroke="#2b3448" stroke-width="1.078"/>
            <path id="Path_23298" data-name="Path 23298" d="M311.274,177.635c0,.544-.883.985-1.972.985s-1.972-.441-1.972-.985.883-.987,1.972-.987S311.274,177.089,311.274,177.635Z" transform="translate(-145.043 -139.799)" fill="#de6c6b" opacity="0.57"/>
            <path id="Path_23299" data-name="Path 23299" d="M263.9,326.825" transform="translate(-158.594 -92.944)" fill="none" stroke="#de6c6b" stroke-width="0.922"/>
            <g id="Group_23084" data-name="Group 23084" transform="translate(86.504 304.924)">
              <path id="Path_23300" data-name="Path 23300" d="M253.768,382.507a29.93,29.93,0,0,0-4.049,17.22s38.817,4.6,43.414,0c0,0,2.566-9.2-12.19-9.2,0,0-8.554,0-10.051-4.491l1.069-3.849s-2.3-3.845-5.429,2.141Z" transform="translate(-249.554 -380.973)" fill="#fff"/>
              <path id="Path_23301" data-name="Path 23301" d="M249.569,394.31s37.261,4.688,43.923-.247" transform="translate(-249.569 -376.889)" fill="none" stroke="#2b3448" stroke-width="0.922"/>
              <path id="Path_23302" data-name="Path 23302" d="M251.262,386.164s6.169,1.973,3.948,11.35" transform="translate(-249.041 -379.354)" fill="none" stroke="#2b3448" stroke-width="0.922"/>
              <path id="Path_23303" data-name="Path 23303" d="M274.453,397.8a10.052,10.052,0,0,1,.247-9.376s9.624,1.233,10.117,7.4" transform="translate(-242.128 -378.65)" fill="none" stroke="#2b3448" stroke-width="0.922"/>
              <line id="Line_14" data-name="Line 14" y1="2.961" x2="1.727" transform="translate(21.715 8.043)" fill="none" stroke="#2b3448" stroke-width="0.922"/>
              <line id="Line_15" data-name="Line 15" y1="2.961" x2="1.481" transform="translate(24.182 8.784)" fill="none" stroke="#2b3448" stroke-width="0.922"/>
              <line id="Line_16" data-name="Line 16" y1="2.961" x2="0.987" transform="translate(27.39 9.277)" fill="none" stroke="#2b3448" stroke-width="0.922"/>
              <path id="Path_23304" data-name="Path 23304" d="M273.831,389.737s7.9,2.221,7.9,7.156" transform="translate(-241.999 -378.239)" fill="none" stroke="#2b3448" stroke-width="0.922"/>
            </g>
            <g id="Group_23085" data-name="Group 23085" transform="translate(0 296.347)">
              <path id="Path_23305" data-name="Path 23305" d="M191.122,374.436a22.487,22.487,0,0,0-7.486,11.976s7.272,4.92,8.128,12.619,25.021,6.63,28.444,4.7c0,0,4.063-7.057-5.562-9.2s-12.831-7.272-11.334-10.053,2.78-6.416,2.139-6.416-3.406,3.705-3.406,3.705Z" transform="translate(-183.636 -374.436)" fill="#fff"/>
              <path id="Path_23306" data-name="Path 23306" d="M220.7,400.286c-24.429,3.455-27.144-3.456-28.871-8.637s-7.9-9.624-7.9-9.624" transform="translate(-183.544 -372.068)" fill="none" stroke="#2b3448" stroke-width="0.922"/>
              <path id="Path_23307" data-name="Path 23307" d="M186.751,387.546s5.182-4.441.741-11.351" transform="translate(-182.664 -373.887)" fill="none" stroke="#2b3448" stroke-width="0.922"/>
              <line id="Line_17" data-name="Line 17" y1="2.468" x2="2.961" transform="translate(18.153 15.386)" fill="none" stroke="#2b3448" stroke-width="0.922"/>
              <line id="Line_18" data-name="Line 18" y1="2.467" x2="1.727" transform="translate(21.361 17.114)" fill="none" stroke="#2b3448" stroke-width="0.922"/>
              <line id="Line_19" data-name="Line 19" y1="2.467" x2="1.234" transform="translate(24.322 18.348)" fill="none" stroke="#2b3448" stroke-width="0.922"/>
              <path id="Path_23308" data-name="Path 23308" d="M206.732,398.621s-3.208-8.39,1.975-8.884c0,0,5.182,3.454,3.7,7.9" transform="translate(-176.736 -369.662)" fill="none" stroke="#2b3448" stroke-width="0.922"/>
              <path id="Path_23309" data-name="Path 23309" d="M207.272,389.759" transform="translate(-176.262 -369.655)" fill="none" stroke="#2b3448" stroke-width="0.922"/>
              <path id="Path_23310" data-name="Path 23310" d="M206.123,391.054s4.442,3.455,3.949,6.909" transform="translate(-176.62 -369.251)" fill="none" stroke="#2b3448" stroke-width="0.922"/>
            </g>
            <path id="Path_23311" data-name="Path 23311" d="M260.372,243.745s-24.386,16.086-34.642,60.839-33.564,89.5-33.564,89.5,82.977,25.172,108.151,12.12c0,0,14.917-42.888,7.459-80.182a559.1,559.1,0,0,1-9.323-65.263Z" transform="translate(-180.975 -118.865)" fill="#2b3448"/>
            <path id="Path_23312" data-name="Path 23312" d="M312.812,201.325c-6.731-1.346-19.3-13.014-21.09-11.668-1.588,1.191-3.521,6.931-3.95,8.249-8.419,6.908-23.784,32.206-33.434,48.93-.2.089-.311.177-.311.262,0,0-8.078,11.219-11.668,12.565s-7.629,2.692-3.142,7.629S283.643,287.486,286.336,283c1.813-3.023,7.9-18.649,11.685-29.086a41.958,41.958,0,0,0,2.951-8.671,4.219,4.219,0,0,0,.176-.823c4.953-1.818,18.092-9.21,5.345-33.627.012-.014.031-.025.038-.043C306.979,209.4,319.544,202.673,312.812,201.325Z" transform="translate(-166.914 -135.773)" fill="#f2df8f"/>
            <path id="Path_23313" data-name="Path 23313" d="M318.888,231.4l-28.272,2.244s-29.066-16.472-13.731-25.44l38.413,2.106S324.308,222.206,318.888,231.4Z" transform="translate(-155.936 -129.952)" fill="#f2df8f"/>
            <path id="Path_23314" data-name="Path 23314" d="M287.959,183.384s4.079-5.388,6.459,6.515c0,0,3.234,5.063,1.1-9.044,0,0,5.13-3.848,6.413-15.817,0,0-.428,15.817-.855,17.527s17.527-7.695,19.237-22.229c0,0-13.252-20.946-34.2-5.13,0,0-19.237,14.534-3.419,32.061A8.1,8.1,0,0,0,287.959,183.384Z" transform="translate(-154.678 -148.332)" fill="#2b3448"/>
            <path id="Path_23315" data-name="Path 23315" d="M286.42,186.7s11.542-25.566,12.4-36.66l-4.7-1.447S287.99,185.289,286.42,186.7Z" transform="translate(-151.567 -148.554)" fill="#f2df8f"/>
            <g id="Group_23086" data-name="Group 23086" transform="translate(129.04 32.561)">
              <path id="Path_23316" data-name="Path 23316" d="M291.664,179.608c1.263,4.138.243,8.117-2.279,8.886s-5.59-1.96-6.854-6.1-.241-8.117,2.28-8.886S290.4,175.47,291.664,179.608Z" transform="translate(-281.99 -173.38)" fill="#74471b"/>
              <path id="Path_23317" data-name="Path 23317" d="M289.172,179.428c.719,2.355.138,4.618-1.3,5.056s-3.18-1.117-3.9-3.47-.138-4.618,1.3-5.056S288.453,177.074,289.172,179.428Z" transform="translate(-281.466 -172.599)" fill="#2b3448" opacity="0.4"/>
            </g>
            <path id="Path_23318" data-name="Path 23318" d="M229.15,371.731s37.572-72.6,37.572-75.781" transform="translate(-169.436 -102.577)" fill="none" stroke="#8bcde5" stroke-width="0.922" opacity="0.47"/>
            <path id="Path_23319" data-name="Path 23319" d="M297.972,228.542s-26.109.636-26.109-6.368" transform="translate(-156.109 -125.595)" fill="none" stroke="#2b3448" stroke-width="0.922"/>
            <line id="Line_20" data-name="Line 20" x1="17.831" y1="1.274" transform="translate(123.395 78.112)" fill="none" stroke="#2b3448" stroke-width="0.922"/>
            <path id="Path_23320" data-name="Path 23320" d="M275.753,195.919s12.653,12.892,18.759,12.843" transform="translate(-154.896 -133.786)" fill="none" stroke="#2b3448" stroke-width="0.922"/>
            <line id="Line_21" data-name="Line 21" y1="7.642" x2="4.458" transform="translate(124.032 57.097)" fill="none" stroke="#2b3448" stroke-width="0.922"/>
            <line id="Line_22" data-name="Line 22" y1="8.047" x2="4.557" transform="translate(133.64 64.122)" fill="none" stroke="#2b3448" stroke-width="0.922"/>
            <line id="Line_23" data-name="Line 23" y1="8.048" x2="4.556" transform="translate(138.137 66.62)" fill="none" stroke="#2b3448" stroke-width="0.922"/>
            <line id="Line_24" data-name="Line 24" y1="8.047" x2="4.557" transform="translate(128.644 61.124)" fill="none" stroke="#2b3448" stroke-width="0.922"/>
            <path id="Path_23321" data-name="Path 23321" d="M309.038,207.146s-9.993,7.745-3.249,22.733" transform="translate(-146.254 -130.283)" fill="none" stroke="#2b3448" stroke-width="0.922"/>
            <path id="Path_23322" data-name="Path 23322" d="M301.2,213.62s-3,9.743,3.748,15.737" transform="translate(-147.162 -128.264)" fill="none" stroke="#2b3448" stroke-width="0.922"/>
            <path id="Path_23323" data-name="Path 23323" d="M238.4,244.275s16.988,15.988,47.965,20.735" transform="translate(-166.55 -118.699)" fill="none" stroke="#2b3448" stroke-width="0.922"/>
            <g id="Group_23087" data-name="Group 23087" transform="translate(164.483 48.54)">
              <path id="Path_23324" data-name="Path 23324" d="M313.619,216.577l34.347-31.018,6.24,6.728s-28.085,38.11-34.558,40.7C313.219,235.565,302.971,228.985,313.619,216.577Z" transform="translate(-309.004 -185.559)" fill="#74471b"/>
            </g>
            <path id="Path_23325" data-name="Path 23325" d="M360.833,185.065a1.028,1.028,0,0,0,.148-1.073c-.646-1.346-5.775,2.552-6.488,3.1-.067-.136-.139-.274-.214-.415,2.342-1.776,6.791-5.169,7.221-5.621a1.174,1.174,0,0,0,.226-1.313c-.819-1.472-7.6,4-8.709,4.906-.151-.22-.307-.44-.463-.656,2.379-2.076,7.513-6.57,7.986-7.122a1.2,1.2,0,0,0,.206-1.389c-1.016-1.528-9.469,6.473-9.469,6.473-.056.056-.109.11-.159.164-.185-.23-.365-.45-.537-.657,1.955-2.094,5.966-6.409,6.323-6.94a1.174,1.174,0,0,0,0-1.333c-1.152-1.427-7.877,6.467-7.877,6.467l-5.2,3.2c-.35-.366-.464-1.051-.034-2.271.837-2.366.413-2.641.413-2.641-2.057-1.153-3.073,2.947-4.634,6.344a9.4,9.4,0,0,0-.4,6.24,2.019,2.019,0,0,0,.185.589l-2.619,2.439,4.549,6.551,5.743-3.919,8-6.927C356.51,188.212,360.484,185.426,360.833,185.065Z" transform="translate(-135.871 -140.932)" fill="#74471b"/>
          </g>
        </g>
      </g>
      <g id="Group_23101" data-name="Group 23101" transform="translate(0 38.567)">
        <ellipse id="Ellipse_2843" data-name="Ellipse 2843" cx="72.767" cy="12.926" rx="72.767" ry="12.926" transform="translate(13.236 348.242)" fill="#e5f0fd"/>
        <g id="Group_23100" data-name="Group 23100">
          <g id="Group_23092" data-name="Group 23092" transform="translate(0 129.752)">
            <g id="Group_23091" data-name="Group 23091" clip-path="url(#clip-path)">
              <circle id="Ellipse_2844" data-name="Ellipse 2844" cx="22.749" cy="22.749" r="22.749" fill="#fff"/>
              <circle id="Ellipse_2845" data-name="Ellipse 2845" cx="22.749" cy="22.749" r="22.749" fill="#fff"/>
              <path id="Path_23326" data-name="Path 23326" d="M63.546,228H54.537l-4.5,7.8,4.5,7.8h9.009l4.5-7.8Z" transform="translate(-35.235 -213.051)" fill="#2b3448"/>
              <path id="Path_23327" data-name="Path 23327" d="M78.063,217.111H69.053l-4.5,7.8,4.5,7.8h9.009l4.5-7.8Z" transform="translate(-30.706 -216.448)" fill="#2b3448"/>
              <path id="Path_23328" data-name="Path 23328" d="M81.288,234.853H72.279l-4.5,7.8,4.5,7.8h9.009l4.5-7.8Z" transform="translate(-29.7 -210.913)" fill="#2b3448"/>
              <path id="Path_23329" data-name="Path 23329" d="M62.74,245.337H53.731l-4.5,7.8,4.5,7.8H62.74l4.5-7.8Z" transform="translate(-35.487 -207.642)" fill="#2b3448"/>
              <path id="Path_23330" data-name="Path 23330" d="M45.4,236.869H36.392l-4.5,7.8,4.5,7.8H45.4l4.5-7.8Z" transform="translate(-40.897 -210.284)" fill="#2b3448"/>
              <path id="Path_23331" data-name="Path 23331" d="M47.134,217.708H38.125l-4.5,7.8,4.5,7.8h9.009l4.5-7.8Z" transform="translate(-40.356 -216.262)" fill="#2b3448"/>
              <path id="Path_23332" data-name="Path 23332" d="M63.263,208.03H54.254l-4.5,7.8,4.5,7.8h9.009l4.5-7.8Z" transform="translate(-35.324 -219.281)" fill="#2b3448"/>
            </g>
          </g>
          <g id="Group_23099" data-name="Group 23099" transform="translate(21.282)">
            <path id="Path_23333" data-name="Path 23333" d="M125.45,311.18s21.462,7.031,30.184-1.776C155.634,309.4,132.225,303.187,125.45,311.18Z" transform="translate(-32.987 -58.62)" fill="#2b3448" opacity="0.35"/>
            <path id="Path_23334" data-name="Path 23334" d="M62.544,280.391s-1.521,4.77,7.516,9.79,21.547,17.047,25.331,13.292S78.622,268.594,62.544,280.391Z" transform="translate(-52.643 -67.781)" fill="#2b3448" opacity="0.35"/>
            <path id="Path_23335" data-name="Path 23335" d="M100.072,314.762c-22.377-46.43-35.465-40.008-36.6-29.671-.585,5.324,7.23,21.505,16.9,39.132C86.937,321.064,93.438,317.76,100.072,314.762Z" transform="translate(-52.334 -67.797)" fill="#e7b68c"/>
            <path id="Path_23336" data-name="Path 23336" d="M150.837,339.544h1.414c-1.586-42.984-14.811-42.4-19.991-34.086-2.418,3.881-2.84,17.135-2.339,33C136.647,339.871,144.124,339.526,150.837,339.544Z" transform="translate(-31.65 -60.515)" fill="#e7b68c"/>
            <g id="Group_23093" data-name="Group 23093" transform="translate(9.9 173.548)">
              <path id="Path_23337" data-name="Path 23337" d="M94.481,249.987s-28.409,32.849-31.96,39.062c0,0,16.867-5.327,32.847,23.082,0,0,31.072-23.969,37.287-47.939Z" transform="translate(-62.521 -249.987)" fill="#2b3448"/>
              <path id="Path_23338" data-name="Path 23338" d="M108.534,280.426s18.642,16.868,22.194,47.94l30.184-1.776-4.438-74.573-46.164,3.552Z" transform="translate(-48.165 -249.354)" fill="#2b3448"/>
              <path id="Path_23339" data-name="Path 23339" d="M102.3,273.065s16.064,4.519,21.586,4.519" transform="translate(-50.109 -242.787)" fill="none" stroke="#8bcde5" stroke-width="0.875"/>
              <path id="Path_23340" data-name="Path 23340" d="M64.806,276.891s25.1,3.515,31.123,25.1" transform="translate(-61.808 -241.593)" fill="none" stroke="#8bcde5" stroke-width="0.875"/>
              <path id="Path_23341" data-name="Path 23341" d="M125.26,308.068s28.112-3.514,30.622-2.007" transform="translate(-42.946 -232.609)" fill="none" stroke="#8bcde5" stroke-width="0.875"/>
            </g>
            <path id="Path_23342" data-name="Path 23342" d="M116.417,153.667l-1.972,20.917s7.692,10.63,23.413,5.07l5.163-23.111S118.9,144.791,116.417,153.667Z" transform="translate(-36.42 -107.526)" fill="#e7b68c"/>
            <path id="Path_23343" data-name="Path 23343" d="M132.1,156.488c-6.4-4.234-14.25-8.149-15.681-3.032l-1.972,20.917a17.851,17.851,0,0,0,8.022,5.56C129.154,174.793,131.574,164.861,132.1,156.488Z" transform="translate(-36.42 -107.315)" fill="#de6c6b" opacity="0.38"/>
            <path id="Path_23344" data-name="Path 23344" d="M147.456,137.907a21.623,21.623,0,0,0-41.909,9.512c.467,8.12,3.4,32.791,21.8,31.838,0,0,21.8,1.414,21.512-32.607l-.257-.055A21.522,21.522,0,0,0,147.456,137.907Z" transform="translate(-39.238 -115.937)" fill="#e7b68c"/>
            <path id="Path_23345" data-name="Path 23345" d="M108.707,143.661c-.039,1.345.534,2.453,1.281,2.476s1.385-1.05,1.425-2.394-.533-2.453-1.279-2.476S108.748,142.317,108.707,143.661Z" transform="translate(-38.211 -110.36)" fill="#2b3448"/>
            <path id="Path_23346" data-name="Path 23346" d="M121.41,144.085c-.039,1.345.534,2.453,1.281,2.476s1.385-1.05,1.425-2.394-.533-2.453-1.279-2.476S121.451,142.742,121.41,144.085Z" transform="translate(-34.248 -110.228)" fill="#2b3448"/>
            <path id="Path_23347" data-name="Path 23347" d="M113.62,136.248s-6.464,1.37-7.19,2.543l.816,1.5,6.623-2.333Z" transform="translate(-38.921 -111.926)" fill="#2b3448"/>
            <path id="Path_23348" data-name="Path 23348" d="M127.37,138.591s-5.761-3.235-7.081-2.833l-.378,1.669,6.515,2.617Z" transform="translate(-34.715 -112.089)" fill="#2b3448"/>
            <path id="Path_23349" data-name="Path 23349" d="M115.3,143.639l-1,7.868,2.261,1.085" transform="translate(-36.465 -109.62)" fill="none" stroke="#de6c6b" stroke-width="0.875" opacity="0.26"/>
            <path id="Path_23350" data-name="Path 23350" d="M73.033,214.644l-13.51-44.929,7.484-1.761s23.914,44.514,21.226,50.121S79.465,230.018,73.033,214.644Z" transform="translate(-53.556 -102.033)" fill="#e7b68c"/>
            <path id="Path_23351" data-name="Path 23351" d="M72.435,217.342,104.3,173.348s15.6-5.895,14.437,11.87l-33.5,37.842S77.028,226.992,72.435,217.342Z" transform="translate(-49.527 -100.643)" fill="#e7b68c"/>
            <path id="Path_23352" data-name="Path 23352" d="M55.008,161.8a.975.975,0,0,1,.346-.967c1.136-.848,3.734,4.686,4.091,5.462.115-.085.237-.169.362-.255-1.187-2.524-3.435-7.334-3.6-7.9a1.109,1.109,0,0,1,.388-1.2c1.336-.878,4.63,6.7,5.163,7.956.224-.118.451-.235.678-.348-1.086-2.792-3.426-8.83-3.58-9.5a1.133,1.133,0,0,1,.438-1.258c1.527-.838,5.112,9.609,5.112,9.609.024.071.042.139.06.207.257-.113.505-.219.741-.318-.722-2.62-2.195-8.012-2.261-8.616a1.112,1.112,0,0,1,.588-1.12c1.6-.694,3.777,8.9,3.777,8.9l2.968,4.979c.455-.155.854-.681,1.029-1.9.337-2.356.813-2.4.813-2.4,2.238-.063,1.287,3.83,1.106,7.372a8.929,8.929,0,0,1-2.406,5.424,1.953,1.953,0,0,1-.416.415l1.128,3.2-6.706,3.506-3.1-5.821-3.674-9.341C57.257,166.346,55.142,162.254,55.008,161.8Z" transform="translate(-54.975 -106.541)" fill="#e7b68c"/>
            <path id="Path_23353" data-name="Path 23353" d="M79.4,196.421a85.97,85.97,0,0,1,.133,9.028" transform="translate(-47.356 -93.152)" fill="none" stroke="#de6c6b" stroke-width="0.875" opacity="0.64"/>
            <path id="Path_23354" data-name="Path 23354" d="M102.715,172.148s-7.837,3.161-17.1,17.552l12.511,22.992L115,199.127S117.95,165.418,102.715,172.148Z" transform="translate(-45.416 -101.002)" fill="#de6c6b"/>
            <path id="Path_23355" data-name="Path 23355" d="M122.063,167.264l-19.021,6.131s-.42,34.957-1.8,50.162c-1.433,15.752-16.672,57.009-16.672,57.009l33.49,9.2,13.376,2.855L166.39,294.5s4.461-102.573-.869-116.325l-15.531-7.44S140.971,181.645,122.063,167.264Z" transform="translate(-45.743 -102.249)" fill="#fff"/>
            <path id="Path_23356" data-name="Path 23356" d="M132.975,177.429a32.846,32.846,0,0,0,11.951-5.148l-3.222-1.544s-9.019,10.908-27.927-3.473l-2.652.855C116.614,174.616,123.871,179.189,132.975,177.429Z" transform="translate(-37.456 -102.249)" fill="#de6c6b"/>
            <path id="Path_23357" data-name="Path 23357" d="M137.361,264.2a127.118,127.118,0,0,1-24.153-4.558c-9.2-2.69-18.747-4.545-27.726-7.942-.575,1.6-.916,2.519-.916,2.519l33.49,9.2,13.376,2.855,34.958,1.885s.1-2.418.264-6.549C157.408,264.844,146.756,265.052,137.361,264.2Z" transform="translate(-45.743 -75.904)" fill="#de6c6b"/>
            <path id="Path_23358" data-name="Path 23358" d="M166.576,236.9l-27-47.135s1.038-16.641,16.754-8.281l20.724,46.094S177.261,236.677,166.576,236.9Z" transform="translate(-28.581 -98.546)" fill="#e7b68c"/>
            <path id="Path_23359" data-name="Path 23359" d="M149.564,175.582s7.938-.244,15.905,20.995l-18.3,16.225S119.868,178.375,149.564,175.582Z" transform="translate(-29.784 -99.654)" fill="#de6c6b"/>
            <path id="Path_23360" data-name="Path 23360" d="M113.465,154.1l8.754.492S116.522,162.731,113.465,154.1Z" transform="translate(-36.726 -106.357)" fill="#fff"/>
            <path id="Path_23361" data-name="Path 23361" d="M138.183,138.306s6.025,7.028,5.02,10.542-8.032,8.535-6.526,13.554c0,0,8.032-10.542,13.554-9.036l-2.814,13.914,5.827-9.4-1.506,6.526s6.526-1,5.522-11.043c0,0,1,5.02,5.02,4.517,0,0-5.522-8.533-5.522-13.554s-3.011-13.052-6.023-13.553c0,0-1.506-13.554-14.558-13.053,0,0,3.011,2.51,4.517,3.515s-9.036-5.522-18.574-.5l-6.526.5s7.53,4.016,11.546,2.007-18.072,1.506-19.578,10.542c0,0-3.514,3.515-5.522,3.515s4.519,3.514,8.535-.5c0,0-4.519,2.009-6.025,9.036,0,0-1.5,4.519-3.011,5.522,0,0,4.517,4.519,7.53-9.036a17.562,17.562,0,0,1,12.551-9.036s-4.519,6.023-6.025,6.526,13.052,0,17.57-6.025l-1,7.028S136.176,138.306,138.183,138.306Z" transform="translate(-40.447 -117.71)" fill="#2b3448"/>
            <path id="Path_23362" data-name="Path 23362" d="M144.09,153.051c-1.26,4.1-4.348,6.788-6.9,6s-3.6-4.742-2.338-8.842,4.349-6.788,6.9-6S145.349,148.951,144.09,153.051Z" transform="translate(-30.22 -109.484)" fill="#e7b68c"/>
            <path id="Path_23363" data-name="Path 23363" d="M141.742,151.759c-.754,2.452-2.6,4.061-4.128,3.591s-2.153-2.837-1.4-5.289,2.6-4.061,4.128-3.592S142.5,149.306,141.742,151.759Z" transform="translate(-29.727 -108.762)" fill="#de6c6b" opacity="0.38"/>
            <path id="Path_23364" data-name="Path 23364" d="M111.125,167.916" transform="translate(-37.456 -102.045)" fill="none" stroke="#2b3448" stroke-width="0.875"/>
            <g id="Group_23094" data-name="Group 23094" transform="translate(41.512 65.871)">
              <line id="Line_25" data-name="Line 25" x2="13.554" y2="24.096" transform="translate(0 19.985)" fill="none" stroke="#2b3448" stroke-width="0.875"/>
              <line id="Line_26" data-name="Line 26" y1="16.566" x2="19.076" transform="translate(73.794 28.017)" fill="none" stroke="#2b3448" stroke-width="0.875"/>
              <path id="Path_23365" data-name="Path 23365" d="M101.92,230.977s12.048,23.594,28.615,23.091" transform="translate(-81.84 -148.241)" fill="none" stroke="#2b3448" stroke-width="0.875"/>
              <path id="Path_23366" data-name="Path 23366" d="M111.125,167.916s14.92,19.963,33.8,4.162" transform="translate(-78.968 -167.916)" fill="none" stroke="#2b3448" stroke-width="0.875"/>
            </g>
            <path id="Path_23367" data-name="Path 23367" d="M173.194,227.623l-17.065,43.7L149.15,268.1s8.617-49.79,14.192-52.547S177.609,211.553,173.194,227.623Z" transform="translate(-25.592 -87.703)" fill="#e7b68c"/>
            <path id="Path_23368" data-name="Path 23368" d="M155.327,273.655a.974.974,0,0,1-.869.547c-1.417-.033-.051-5.991.147-6.822-.144,0-.291-.012-.442-.022-.622,2.718-1.818,7.893-2.04,8.44a1.111,1.111,0,0,1-1.047.707c-1.593-.133.488-8.133.84-9.446q-.374-.069-.748-.144c-.866,2.868-2.747,9.063-3.04,9.688a1.133,1.133,0,0,1-1.12.72c-1.719-.282,1.9-10.716,1.9-10.716.026-.071.054-.136.08-.2q-.407-.106-.778-.207c-1.047,2.507-3.213,7.662-3.533,8.178a1.113,1.113,0,0,1-1.152.52c-1.686-.438,2.514-9.338,2.514-9.338l.732-5.75c-.454-.159-1.09.009-1.977.858-1.719,1.648-2.123,1.389-2.123,1.389-1.8-1.329,1.349-3.809,3.676-6.485a8.93,8.93,0,0,1,5.238-2.787,1.916,1.916,0,0,1,.584-.07l1.085-3.217,7.442,1.374-1.147,6.5-2.868,9.62C156.36,268.687,155.5,273.213,155.327,273.655Z" transform="translate(-27.78 -76.592)" fill="#e7b68c"/>
            <path id="Path_23369" data-name="Path 23369" d="M157.257,220.356a85.98,85.98,0,0,1,7.718-4.684" transform="translate(-23.063 -87.145)" fill="none" stroke="#de6c6b" stroke-width="0.875" opacity="0.64"/>
            <g id="Group_23096" data-name="Group 23096" transform="translate(26.273 242.719)">
              <path id="Path_23370" data-name="Path 23370" d="M94.366,302.709A128.412,128.412,0,0,1,75,313.181C90,340.92,110.726,373.8,110.726,373.8l8.643-8.487C110.045,337.425,101.68,317.184,94.366,302.709Z" transform="translate(-75 -302.709)" fill="#fff"/>
              <path id="Path_23371" data-name="Path 23371" d="M97.83,309.846c-1.178-2.515-2.335-4.9-3.464-7.137A128.412,128.412,0,0,1,75,313.181c1.039,1.921,2.108,3.869,3.193,5.828A84.4,84.4,0,0,0,97.83,309.846Z" transform="translate(-75 -302.709)" fill="#de6c6b"/>
              <path id="Path_23372" data-name="Path 23372" d="M99.966,314.887c-.283-.651-.567-1.3-.848-1.935a91.86,91.86,0,0,1-19.057,9.015q.685,1.208,1.372,2.417C88.129,322.894,94.165,318.814,99.966,314.887Z" transform="translate(-73.421 -299.513)" fill="#de6c6b"/>
              <g id="Group_23095" data-name="Group 23095" transform="translate(24.309 62.602)">
                <path id="Path_23373" data-name="Path 23373" d="M99.414,376.18c.732.879.968,1.889.527,2.255s-1.389-.052-2.12-.932-.967-1.889-.527-2.255S98.683,375.3,99.414,376.18Z" transform="translate(-92.422 -342.72)" fill="#de6c6b"/>
                <path id="Path_23374" data-name="Path 23374" d="M102.221,373.723c.732.88.968,1.891.527,2.255s-1.389-.051-2.12-.93-.968-1.889-.527-2.255S101.49,372.844,102.221,373.723Z" transform="translate(-91.547 -343.486)" fill="#de6c6b"/>
                <path id="Path_23375" data-name="Path 23375" d="M105.159,370.755c.732.88.968,1.889.527,2.255s-1.389-.051-2.12-.932-.967-1.889-.527-2.255S104.428,369.875,105.159,370.755Z" transform="translate(-90.63 -344.413)" fill="#de6c6b"/>
                <path id="Path_23376" data-name="Path 23376" d="M108.142,367.6c.731.88.967,1.889.527,2.255s-1.389-.051-2.121-.932-.967-1.889-.527-2.254S107.41,366.718,108.142,367.6Z" transform="translate(-89.7 -345.398)" fill="#de6c6b"/>
                <path id="Path_23377" data-name="Path 23377" d="M111.3,365.141c.732.88.968,1.889.527,2.255s-1.388-.051-2.12-.932-.967-1.889-.527-2.255S110.568,364.262,111.3,365.141Z" transform="translate(-88.714 -346.164)" fill="#de6c6b"/>
                <path id="Path_23378" data-name="Path 23378" d="M113.931,362.334c.731.88.967,1.889.527,2.255s-1.389-.051-2.12-.932-.968-1.889-.527-2.254S113.2,361.453,113.931,362.334Z" transform="translate(-87.893 -347.04)" fill="#de6c6b"/>
                <path id="Path_23379" data-name="Path 23379" d="M116.694,359.864c.732.88.968,1.889.529,2.255s-1.389-.051-2.122-.93-.967-1.891-.527-2.255S115.963,358.985,116.694,359.864Z" transform="translate(-87.031 -347.81)" fill="#de6c6b"/>
                <path id="Path_23380" data-name="Path 23380" d="M118.449,357.057c.731.88.967,1.891.527,2.255s-1.389-.051-2.12-.93-.968-1.891-.529-2.255S117.717,356.178,118.449,357.057Z" transform="translate(-86.484 -348.686)" fill="#de6c6b"/>
                <path id="Path_23381" data-name="Path 23381" d="M100.522,355.856s3.012-4.016,6.025,1l7.042-6.435s9.023.913,10.529,6.435-25.6,28.112-25.6,28.112-11.547-8.535.5-17.068C99.016,367.9,105.543,362.884,100.522,355.856Z" transform="translate(-93.528 -350.424)" fill="#de6c6b"/>
                <path id="Path_23382" data-name="Path 23382" d="M96.408,382.325s22.317-18.085,26.811-27" transform="translate(-92.63 -348.894)" fill="none" stroke="#fff" stroke-width="0.875"/>
                <path id="Path_23383" data-name="Path 23383" d="M97.711,363.747s5.2.76,8.188,7.665" transform="translate(-92.223 -346.267)" fill="none" stroke="#fff" stroke-width="0.875"/>
                <path id="Path_23384" data-name="Path 23384" d="M108.818,350.424s3.052,10.184,7.656,10.644" transform="translate(-88.758 -350.424)" fill="none" stroke="#fff" stroke-width="0.875"/>
                <path id="Path_23385" data-name="Path 23385" d="M99.566,362.056a3.038,3.038,0,0,1,3.222,1.611" transform="translate(-91.644 -346.808)" fill="none" stroke="#fff" stroke-width="0.875"/>
                <path id="Path_23386" data-name="Path 23386" d="M100.268,360.389s1.38-1.38,3.452.921" transform="translate(-91.425 -347.443)" fill="none" stroke="#fff" stroke-width="0.875"/>
              </g>
            </g>
            <g id="Group_23098" data-name="Group 23098" transform="translate(98.168 274.135)">
              <path id="Path_23387" data-name="Path 23387" d="M144.86,327.189a111.436,111.436,0,0,1-15.062-.535c.7,31.5,5.644,76.227,5.644,76.227l12.329-.306c4.334-34.466,5.255-58.74,4.242-75.531C149.63,327.134,147.245,327.188,144.86,327.189Z" transform="translate(-129.798 -326.654)" fill="#fff"/>
              <path id="Path_23388" data-name="Path 23388" d="M152.252,332.336c-.062-1.833-.138-3.611-.239-5.291-2.383.089-4.768.143-7.153.144a111.436,111.436,0,0,1-15.062-.535c.047,2.094.113,4.25.2,6.445C137.259,335.074,144.98,334.354,152.252,332.336Z" transform="translate(-129.798 -326.654)" fill="#de6c6b"/>
              <path id="Path_23389" data-name="Path 23389" d="M152.254,339.374q.01-1.517,0-2.977c-7.2,1.812-14.87,2.415-22.072.851.035.714.073,1.431.112,2.149C137.969,340.652,145.052,341.068,152.254,339.374Z" transform="translate(-129.677 -323.614)" fill="#de6c6b"/>
              <g id="Group_23097" data-name="Group 23097" transform="translate(3.607 68.069)">
                <path id="Path_23390" data-name="Path 23390" d="M135.063,394.469c.1,1.139-.276,2.1-.845,2.156s-1.115-.83-1.218-1.971.277-2.1.846-2.156S134.962,393.329,135.063,394.469Z" transform="translate(-132.411 -374.18)" fill="#de6c6b"/>
                <path id="Path_23391" data-name="Path 23391" d="M138.832,396.549c.1,1.139-.277,2.1-.846,2.156s-1.115-.83-1.218-1.971.277-2.1.846-2.156S138.729,395.409,138.832,396.549Z" transform="translate(-131.235 -373.531)" fill="#de6c6b"/>
                <path id="Path_23392" data-name="Path 23392" d="M142.776,396.654c.1,1.139-.277,2.1-.846,2.156s-1.115-.832-1.218-1.971.277-2.1.846-2.156S142.673,395.514,142.776,396.654Z" transform="translate(-130.005 -373.499)" fill="#de6c6b"/>
                <path id="Path_23393" data-name="Path 23393" d="M146.109,394.2c.1,1.139-.277,2.1-.846,2.156s-1.114-.832-1.216-1.971.275-2.1.845-2.156S146.006,393.058,146.109,394.2Z" transform="translate(-128.965 -374.265)" fill="#de6c6b"/>
                <path id="Path_23394" data-name="Path 23394" d="M134.389,383.6s-1.842,9.667-1.842,12.66,6.446,5.294,10.129,5.063,6.905-4.6,6.905-4.6-2.3-12.43-2.3-13.351-2.991-.459-2.991-.459l-.691-4.374h-4.833v4.6Z" transform="translate(-132.547 -378.536)" fill="#de6c6b"/>
                <path id="Path_23395" data-name="Path 23395" d="M132.547,392.045s8.057,8.287,17.034.46" transform="translate(-132.547 -374.321)" fill="none" stroke="#fff" stroke-width="0.875"/>
                <path id="Path_23396" data-name="Path 23396" d="M132.723,390.376a15.78,15.78,0,0,1,16.111-.69" transform="translate(-132.492 -375.644)" fill="none" stroke="#fff" stroke-width="0.875"/>
                <path id="Path_23397" data-name="Path 23397" d="M136.758,386.42s3.683-1.382,5.754-.231" transform="translate(-131.233 -376.291)" fill="none" stroke="#fff" stroke-width="0.875"/>
                <path id="Path_23398" data-name="Path 23398" d="M136.758,384.49s3.683-1.381,5.754-.231" transform="translate(-131.233 -376.893)" fill="none" stroke="#fff" stroke-width="0.875"/>
              </g>
            </g>
          </g>
        </g>
      </g>
      <g id="Group_23110" data-name="Group 23110" transform="translate(516.161 24.891)">
        <ellipse id="Ellipse_2847" data-name="Ellipse 2847" cx="72.767" cy="12.926" rx="72.767" ry="12.926" transform="translate(6.467 361.918)" fill="#e5f0fd"/>
        <g id="Group_23109" data-name="Group 23109">
          <path id="Path_23399" data-name="Path 23399" d="M566.414,258.213a1.027,1.027,0,0,1-.283,1.044c-1.123.984-4.311-4.614-4.751-5.4-.114.1-.235.2-.359.3,1.456,2.553,4.217,7.421,4.435,8a1.172,1.172,0,0,1-.307,1.3c-1.332,1.033-5.421-6.66-6.084-7.931-.226.143-.455.283-.685.421,1.374,2.843,4.331,8.994,4.55,9.685a1.2,1.2,0,0,1-.357,1.359c-1.534,1.006-6.166-9.672-6.166-9.672-.03-.072-.056-.143-.08-.213-.261.139-.513.272-.753.395.976,2.692,2.97,8.235,3.09,8.864a1.174,1.174,0,0,1-.525,1.225c-1.62.862-4.706-9.04-4.706-9.04l-3.532-4.983c-.464.2-.84.785-.922,2.076-.159,2.5-.656,2.591-.656,2.591-2.346.253-1.67-3.916-1.773-7.653a9.4,9.4,0,0,1,2.078-5.9,2.029,2.029,0,0,1,.4-.47l-1.452-3.271,6.756-4.239,3.743,5.858,4.633,9.511C563.674,253.62,566.235,257.743,566.414,258.213Z" transform="translate(-396.488 -66.907)" fill="#e7b68c"/>
          <path id="Path_23400" data-name="Path 23400" d="M504.281,138.418a14.915,14.915,0,0,0-4.107,8.9c-.685,5.817-3.422,7.871-4.449,7.871s3.764,3.081,7.187-.341S511.811,140.814,504.281,138.418Z" transform="translate(-412.384 -97.573)" fill="#2b3448"/>
          <path id="Path_23401" data-name="Path 23401" d="M520.457,172.075s15.743,3.765,15.058-26.353C535.514,145.722,514.638,166.257,520.457,172.075Z" transform="translate(-404.943 -95.294)" fill="#2b3448"/>
          <path id="Path_23402" data-name="Path 23402" d="M505.015,368.63s-10.726,1.3-9.9,6.9,7.989,9.079,4.7,16.916,6.3,16.107,12.574,15.093c0,0-.677.188-2.143-10.337s3.8-30.78,3.8-30.78Z" transform="translate(-412.544 -26.434)" fill="#e7b68c"/>
          <path id="Path_23403" data-name="Path 23403" d="M510.453,398.1a3.173,3.173,0,0,1-.375-.581c-4.668-9.423-3.894-18.931-5.485-29.031-.018-.113-.024-.222-.032-.331-2.032.324-10.169,1.931-9.445,6.837.828,5.6,7.989,9.079,4.7,16.916s6.3,16.107,12.574,15.093C512.39,407,511.776,407.151,510.453,398.1Z" transform="translate(-412.544 -25.894)" fill="#2b3448"/>
          <path id="Path_23404" data-name="Path 23404" d="M530.709,160.909c-2.076,3.595-5.432,5.543-7.5,4.352s-2.055-5.072.021-8.667,5.432-5.543,7.5-4.351S532.785,157.314,530.709,160.909Z" transform="translate(-404.245 -93.368)" fill="#e7b68c"/>
          <path id="Path_23405" data-name="Path 23405" d="M510.622,223.95s-34.515-6.879-73.7,41.049c0,0-13.281,18.982,5.348,22.783,0,0,58.757-29.058,68.031-34.9S523.875,230.951,510.622,223.95Z" transform="translate(-432.117 -70.993)" fill="#2b3448"/>
          <path id="Path_23406" data-name="Path 23406" d="M497.054,224.7s-14.639,26.009,5.778,84.449c0,0,9.255,21.239,22.223,7.335,0,0,4.937-54.794,4.3-65.736C527.947,226.4,509.943,217.053,497.054,224.7Z" transform="translate(-413.511 -71.465)" fill="#2b3448"/>
          <path id="Path_23407" data-name="Path 23407" d="M450.112,259.612s21.766,3.095,57.72,52.593l-5.791,7.825s-66.6-39.922-69.578-51.409S450.112,259.612,450.112,259.612Z" transform="translate(-432.169 -59.831)" fill="#2b3448"/>
          <path id="Path_23408" data-name="Path 23408" d="M503.432,299.655s-12.69,20.707-1.241,92.34l9.69,1.783s16.6-89.04,10.249-101.2S503.432,299.655,503.432,299.655Z" transform="translate(-411.816 -50.733)" fill="#2b3448"/>
          <path id="Path_23409" data-name="Path 23409" d="M487.663,298.232s10.606-2.062,11.543,3.521-4.806,11.1.735,17.541-1.033,17.263-7.318,18.229c0,0,.7-.029-1.143-10.495s-9-20.668-9-20.668Z" transform="translate(-416.473 -47.827)" fill="#e7b68c"/>
          <path id="Path_23410" data-name="Path 23410" d="M498.78,319.294c-5.541-6.446.2-11.958-.735-17.541s-11.543-3.521-11.543-3.521l-.306.48c5.245,11.547,12.591,24.246,5.055,34.2.611,4.587.21,4.616.21,4.616C497.748,336.558,504.322,325.739,498.78,319.294Z" transform="translate(-415.313 -47.827)" fill="#2b3448"/>
          <path id="Path_23411" data-name="Path 23411" d="M530.352,177.422s21.031,38.81,17.807,44.78-12.653,6.425-30.747-36.994C517.411,185.208,516.577,167.058,530.352,177.422Z" transform="translate(-405.577 -86.401)" fill="#e7b68c"/>
          <path id="Path_23412" data-name="Path 23412" d="M493.29,193.319s-24.6-43.16-21.426-49.155,12.6-6.523,31.035,36.752C502.9,180.916,507.146,203.576,493.29,193.319Z" transform="translate(-419.873 -96.688)" fill="#e7b68c"/>
          <path id="Path_23413" data-name="Path 23413" d="M533.714,207.943s-6.792,10.113,20.762,48.4l7.234-5.4S547.4,191.934,533.714,207.943Z" transform="translate(-400.719 -76.74)" fill="#e7b68c"/>
          <path id="Path_23414" data-name="Path 23414" d="M475.979,157.834s11.783,3.092,38.886-35.512l-7.476-5.058S456.364,150.173,475.979,157.834Z" transform="translate(-419.901 -104.173)" fill="#e7b68c"/>
          <path id="Path_23415" data-name="Path 23415" d="M528.063,131.354a19.523,19.523,0,0,0-26.056,14.79c-3.161,9.419-6.67,26.122,5.937,31,0,0,14.229,5.867,26.39-12.694a19.634,19.634,0,0,0-6.27-33.1Z" transform="translate(-411.31 -100.155)" fill="#e7b68c"/>
          <path id="Path_23416" data-name="Path 23416" d="M531.291,159.98s-8.645,17.29-9.8,21.325c0,0-8.069,5.762-17.867-5.188l12.1-24.208S527.832,154.792,531.291,159.98Z" transform="translate(-409.875 -93.363)" fill="#e7b68c"/>
          <path id="Path_23417" data-name="Path 23417" d="M521.83,165.513a17.471,17.471,0,0,1-15.19.985l-3.014,6.029a20.9,20.9,0,0,0,7.821,5.812c5.715-1.355,9.993-7.876,13.283-14.919A15.615,15.615,0,0,1,521.83,165.513Z" transform="translate(-409.875 -89.772)" fill="#de6c6b" opacity="0.38"/>
          <path id="Path_23418" data-name="Path 23418" d="M528.451,214.172c3.458-3.458,17.868-31.123,17.868-31.123s-2.882-14.41-14.41-6.34c0,0-12.1,3.457-17.867-5.188,0,0-7.493-8.069-15.562-3.458,0,0-2.305,14.408-8.069,16.715s-10.951,8.069-.576,23.053l-3.458,17.291s-11.527,10.951-16.138,21.325c0,0,22.477,13.256,28.241,24.206,0,0,21.9-14.984,34.582-16.714,0,0-3.881-16.065-8.922-24.3C524.672,225.089,525.967,216.656,528.451,214.172Z" transform="translate(-420.291 -88.767)" fill="#e5a3c3"/>
          <path id="Path_23419" data-name="Path 23419" d="M528.451,205.205c1.172-1.172,3.6-5.118,6.294-9.824C530.368,200.9,525.407,205.8,519,209.136c2.73,13.354-6.519,30.407-20.575,31.48-10.1.77-16.395-7.352-19.306-16.6a61.575,61.575,0,0,0-8.88,13.46s22.477,13.256,28.241,24.206c0,0,21.9-14.984,34.582-16.714,0,0-3.881-16.065-8.922-24.3C524.672,216.122,525.967,207.689,528.451,205.205Z" transform="translate(-420.291 -79.8)" fill="#de6c6b" opacity="0.21"/>
          <path id="Path_23420" data-name="Path 23420" d="M523.668,134.913s-1.37-7.872,2.053-6.5,3.081,4.108,3.081,4.108,3.422-10.61,6.5-7.53,0,7.187,0,7.187,6.5-7.872,7.872-3.765-4.449,9.583-4.449,9.583,6.845,2.055,4.107,5.134-11.294,4.449-11.294,4.449Z" transform="translate(-403.706 -101.938)" fill="#2b3448"/>
          <path id="Path_23421" data-name="Path 23421" d="M528.485,159.249c-1.2,2.077-3.094,3.226-4.233,2.569s-1.09-2.873.109-4.95,3.094-3.226,4.233-2.569S529.685,157.174,528.485,159.249Z" transform="translate(-403.696 -92.675)" fill="#de6c6b" opacity="0.38"/>
          <path id="Path_23422" data-name="Path 23422" d="M524.5,162.735a1.883,1.883,0,1,1-1.883-1.883A1.884,1.884,0,0,1,524.5,162.735Z" transform="translate(-404.537 -90.573)" fill="#fff"/>
          <path id="Path_23423" data-name="Path 23423" d="M506.482,157.519l-3.4-2.338s3.4-5.939,3.914-10.142" transform="translate(-410.043 -95.507)" fill="none" stroke="#de6c6b" stroke-width="0.922"/>
          <g id="Group_23103" data-name="Group 23103" transform="translate(91.606 64.412)">
            <path id="Path_23424" data-name="Path 23424" d="M502.811,156.506s-1.357.943-.151,1.631c0,0-1.309,1.557-.265,2.213s5.836.991,6.982-.6C509.378,159.753,503.656,155.614,502.811,156.506Z" transform="translate(-501.991 -156.38)" fill="#de6c6b"/>
            <g id="Group_23102" data-name="Group 23102" transform="translate(0.608 1.624)">
              <path id="Path_23425" data-name="Path 23425" d="M507.707,159.52a31.852,31.852,0,0,1-5.253-1.636l.123-.266c.062.026,6.153,2.532,8.253,1.64l.147.266A6.219,6.219,0,0,1,507.707,159.52Z" transform="translate(-502.454 -157.618)" fill="#2b3448"/>
            </g>
          </g>
          <path id="Path_23426" data-name="Path 23426" d="M510.544,145.529a7.845,7.845,0,0,1,3.229-.682,8.67,8.67,0,0,1,3.314.617,9.679,9.679,0,0,1,1.513.807,7.747,7.747,0,0,1,1.262,1.151,6.959,6.959,0,0,1,1.561,2.919,17.117,17.117,0,0,0-2.216-2.238,9.2,9.2,0,0,0-2.575-1.519A16.883,16.883,0,0,0,510.544,145.529Z" transform="translate(-407.717 -95.567)" fill="#2b3448"/>
          <path id="Path_23427" data-name="Path 23427" d="M505.938,144.572a18.923,18.923,0,0,1-2.8-.7,9.549,9.549,0,0,0-1.256-.323,4,4,0,0,0-1.385-.021,1.843,1.843,0,0,1,1.353-.922,3.392,3.392,0,0,1,1.632.108,4.631,4.631,0,0,1,1.4.7A3.61,3.61,0,0,1,505.938,144.572Z" transform="translate(-410.851 -96.285)" fill="#2b3448"/>
          <path id="Path_23428" data-name="Path 23428" d="M504.286,148.464a2.649,2.649,0,0,1-1.389.93,2.508,2.508,0,0,1-1.824-.135,2.384,2.384,0,0,1-1.178-1.424,3.581,3.581,0,0,1-.136-.845,4.059,4.059,0,0,1,.134-.828,5.448,5.448,0,0,1,.438.672c.155.2.27.411.411.581a2.514,2.514,0,0,0,.875.764A5.772,5.772,0,0,0,504.286,148.464Z" transform="translate(-411.082 -95.156)" fill="#2b3448"/>
          <path id="Path_23429" data-name="Path 23429" d="M508.949,149.512a6.86,6.86,0,0,0,1.535,1.732,4.475,4.475,0,0,0,1.9.862,6.955,6.955,0,0,0,2.141-.029l1.11-.237c.365-.118.74-.222,1.126-.319l.2-.05.071.043a13.279,13.279,0,0,1,1.336.926,13.417,13.417,0,0,1-1.591-.328l.269-.007c-.352.215-.714.425-1.085.619a12.111,12.111,0,0,1-1.193.446,5.613,5.613,0,0,1-2.628.085,4.156,4.156,0,0,1-2.259-1.405A4.074,4.074,0,0,1,508.949,149.512Z" transform="translate(-408.214 -94.111)" fill="#2b3448"/>
          <g id="Group_23104" data-name="Group 23104" transform="translate(78.241 119.229)" opacity="0.44">
            <path id="Path_23430" data-name="Path 23430" d="M504.9,202.858c-5.094-5.559-12.6-2.831-12.667-2.8l-.425-1.132c.083-.031,8.344-3.033,13.983,3.119Z" transform="translate(-491.804 -198.162)" fill="#2b3448"/>
          </g>
          <g id="Group_23105" data-name="Group 23105" transform="translate(88.256 79.854)" opacity="0.44">
            <path id="Path_23431" data-name="Path 23431" d="M514.371,180.644a12.236,12.236,0,0,1-3.109-.4c-7.863-2.056-11.665-11.25-11.824-11.641l1.122-.454c.035.091,3.74,9.029,11.014,10.926,4.2,1.1,8.811-.34,13.713-4.261l.756.945C521.982,179.009,518.068,180.644,514.371,180.644Z" transform="translate(-499.438 -168.15)" fill="#2b3448"/>
          </g>
          <line id="Line_27" data-name="Line 27" x2="5.429" y2="0.494" transform="translate(60.683 50.96)" fill="none" stroke="#de6c6b" stroke-width="0.922"/>
          <line id="Line_28" data-name="Line 28" y1="0.987" x2="2.468" transform="translate(132.746 134.376)" fill="none" stroke="#de6c6b" stroke-width="0.922"/>
          <g id="Group_23106" data-name="Group 23106" transform="translate(87.489)">
            <path id="Path_23432" data-name="Path 23432" d="M498.853,120.377s8.86-13.823,14.195-13.061,16.767-.762,16.767,2.286-12.957,3.811-12.957,3.811-5.052,8.04-10.529,12.022S498.853,120.377,498.853,120.377Z" transform="translate(-498.853 -107.286)" fill="#e7b68c"/>
            <line id="Line_29" data-name="Line 29" x2="15.319" y2="0.221" transform="translate(15.149 1.602)" fill="none" stroke="#de6c6b" stroke-width="0.461"/>
            <line id="Line_30" data-name="Line 30" x2="15.319" y2="0.221" transform="translate(14.655 3.083)" fill="none" stroke="#de6c6b" stroke-width="0.461"/>
          </g>
          <g id="Group_23107" data-name="Group 23107" transform="translate(39.871 228.97)">
            <path id="Path_23433" data-name="Path 23433" d="M462.559,297.059s.949,8.533,8.533,9.482c0,0,2.844,4.74,7.586,5.689,0,0,5.083,8.678,9.482,4.742s8.562-11.836,8.562-11.836,2.817-7.129-.029-7.129-4.74-9.482-7.585-9.482-4.742-7.585-7.586-6.637S462.559,297.059,462.559,297.059Z" transform="translate(-462.559 -281.806)" fill="#e5a3c3"/>
            <path id="Path_23434" data-name="Path 23434" d="M469.063,304.943s17.055-13.007,18.016-18.016" transform="translate(-460.53 -280.208)" fill="none" stroke="#2b3448" stroke-width="0.922" opacity="0.47"/>
            <line id="Line_31" data-name="Line 31" y1="10.792" x2="10.538" transform="translate(16.119 19.633)" fill="none" stroke="#2b3448" stroke-width="0.922" opacity="0.47"/>
          </g>
          <g id="Group_23108" data-name="Group 23108" transform="translate(83.228 314.123)">
            <path id="Path_23435" data-name="Path 23435" d="M521.214,346.71s4.816,6.9-.156,12.5c0,0,.968,5.331-1.909,9.088,0,0,1.864,9.677-3.918,9.613s-13.951-3.2-13.951-3.2-6.679-3.439-4.585-5.274-2.636-10.05-.542-11.885-1.41-8.651,1.3-9.788S521.214,346.71,521.214,346.71Z" transform="translate(-495.605 -346.709)" fill="#e5a3c3"/>
            <path id="Path_23436" data-name="Path 23436" d="M496.023,354.969s13.477,3.014,16.891,1.307" transform="translate(-495.475 -344.132)" fill="none" stroke="#2b3448" stroke-width="0.922" opacity="0.47"/>
            <path id="Path_23437" data-name="Path 23437" d="M496.436,364.028s12.935,3.929,17.2.516" transform="translate(-495.346 -341.305)" fill="none" stroke="#2b3448" stroke-width="0.922" opacity="0.47"/>
          </g>
          <path id="Path_23438" data-name="Path 23438" d="M538.652,160.321c-3.908-1.849-9.438,7.667-9.438,7.667-3.081-4.791,7.187-12.662,4.791-14.374s-.685-5.475-4.449-8.213-8.9,4.107-8.9,4.107c-2.4-2.738,1.027-7.187,1.027-7.187-3.081-1.368-11.294,4.449-11.294,4.449-.342-3.079,2.737-6.5,2.737-6.5-3.079,3.081-14.032,3.423-14.032,3.423-.685-4.791,5.476-6.161,3.765-7.187s1.711-5.134,3.079-4.108,1.37,2.4,8.557-2.4,16.427,1.027,16.427,1.027,19.221,7.938,7.728,29.294" transform="translate(-411.305 -100.79)" fill="#2b3448"/>
        </g>
      </g>
      <g id="Group_23119" data-name="Group 23119" transform="translate(711.153 11.604)">
        <ellipse id="Ellipse_2848" data-name="Ellipse 2848" cx="72.767" cy="12.926" rx="72.767" ry="12.926" transform="translate(7.753 375.205)" fill="#e5f0fd"/>
        <g id="Group_23118" data-name="Group 23118">
          <path id="Path_23439" data-name="Path 23439" d="M627.3,182.371s-29.744,38.735-37.231,38.166S565.141,212.883,613.6,172.8C613.6,172.8,631.568,163.781,627.3,182.371Z" transform="translate(-580.791 -74.24)" fill="#dc903c"/>
          <path id="Path_23440" data-name="Path 23440" d="M587.829,309.064s-3.287,8.794,35.082,89.305l11.729-5.384s-11.463-72.674-26.2-87.917C608.438,305.067,593.057,302.326,587.829,309.064Z" transform="translate(-578.617 -32.463)" fill="#8bcde5"/>
          <path id="Path_23441" data-name="Path 23441" d="M649.134,310.91s-3.268,7.023,23.789,92.005l12.354-3.738s-1.666-79.487-14.195-96.593C671.083,302.584,655.231,304.947,649.134,310.91Z" transform="translate(-559.507 -33.066)" fill="#8bcde5"/>
          <path id="Path_23442" data-name="Path 23442" d="M609.094,254.445s-23.545,61.768-21.244,71.2,18.815,14.777,26.1,4.576S645.04,274.36,645.04,274.36,622.21,241.329,609.094,254.445Z" transform="translate(-578.638 -49.046)" fill="#8bcde5"/>
          <path id="Path_23443" data-name="Path 23443" d="M630.13,260.449s18.1,61.362,25.285,67.456,22.674,1.089,22.236-10.933-9.017-60.941-9.017-60.941S632.378,242.907,630.13,260.449Z" transform="translate(-565.397 -49.061)" fill="#8bcde5"/>
          <path id="Path_23444" data-name="Path 23444" d="M610.1,239.644s-7.619,24.288-9.047,28.659,20.021,5.527,27.164,9.9,26.434,8.676,29.768,5.761,9.734-2.06,23.066-5.459c0,0,.953-20.887-1.9-28.174S610.1,239.644,610.1,239.644Z" transform="translate(-574.49 -52.703)" fill="#8bcde5"/>
          <path id="Path_23445" data-name="Path 23445" d="M631.073,158.283l-3.717,17.848s16.788,12.6,30.293,2.915L656.5,147.54S633.534,153.5,631.073,158.283Z" transform="translate(-566.263 -81.439)" fill="#dc903c"/>
          <path id="Path_23446" data-name="Path 23446" d="M647.41,149.58c-6.714,2.171-14.92,5.311-16.337,8.066l-3.717,17.848a38.673,38.673,0,0,0,8.4,4.484C644.779,175.056,646.918,160.548,647.41,149.58Z" transform="translate(-566.263 -80.803)" fill="#74471b" opacity="0.18"/>
          <path id="Path_23447" data-name="Path 23447" d="M666.205,144.336a23.761,23.761,0,0,0-46.058-11.7c-.024.093-.034.186-.056.279l-.016,0s-11.486,36.523,16.006,43.055c0,0,20.206,7.4,30.051-31.353l-.013-.01C666.145,144.517,666.181,144.43,666.205,144.336Z" transform="translate(-569.277 -91.616)" fill="#dc903c"/>
          <path id="Path_23448" data-name="Path 23448" d="M619.614,130.057s3.907-1.7,7.148.03" transform="translate(-568.678 -87.127)" fill="none" stroke="#2b3448" stroke-linecap="round" stroke-width="0.976"/>
          <path id="Path_23449" data-name="Path 23449" d="M642.617,132.885a15.369,15.369,0,0,0-9.432-2.093" transform="translate(-564.444 -86.699)" fill="none" stroke="#2b3448" stroke-linecap="round" stroke-width="1.159"/>
          <path id="Path_23450" data-name="Path 23450" d="M636.807,167.572s-22.124,3.81-24.754,4.415-5.5,72.392-7.729,80.75-4.142,31.2-3.794,33.519,72.344,20.147,84.5,9.6c0,0-2.451-33.876-1.53-37.5s8.251-79.648,8.251-79.648l-25.367-9.718S653.3,183.732,636.807,167.572Z" transform="translate(-574.646 -75.189)" fill="#2b3448"/>
          <path id="Path_23451" data-name="Path 23451" d="M588.065,309.63s2.27-6.93,5.15-6.93,1.921,6.721,1.921,6.721,1.921-2.88,6.721-.959l-1.921,7.682s3.842,0,4.8,8.642h-5.761s0,5.761-2.881,9.6S583.875,313.679,588.065,309.63Z" transform="translate(-578.854 -33.029)" fill="#dc903c"/>
          <g id="Group_23111" data-name="Group 23111" transform="translate(53.54 224.925)" opacity="0.33">
            <rect id="Rectangle_17462" data-name="Rectangle 17462" width="1.21" height="30.366" transform="translate(0 1.148) rotate(-71.566)" fill="#2b3448"/>
          </g>
          <g id="Group_23112" data-name="Group 23112" transform="translate(99.23 222.499)" opacity="0.33">
            <path id="Path_23452" data-name="Path 23452" d="M682.244,397.524l-1.084-.324c.955-3.2-14.271-79.638-24.736-130.236l1.109-.218C660.207,279.672,683.615,393.153,682.244,397.524Z" transform="translate(-656.424 -266.746)" fill="#2b3448"/>
          </g>
          <g id="Group_23113" data-name="Group 23113" transform="translate(28.103 228.066)" opacity="0.33">
            <path id="Path_23453" data-name="Path 23453" d="M629.556,403.633,602.211,320.2l29.912-49.21,1.035.628-29.624,48.735,27.172,82.9Z" transform="translate(-602.211 -270.989)" fill="#2b3448"/>
          </g>
          <g id="Group_23114" data-name="Group 23114" transform="translate(7.545)">
            <path id="Path_23454" data-name="Path 23454" d="M653.862,206.171s-18.363-1.106-5.819-29.41c0,0-2.362-4.641-8.283.674s-9.483,15.269-10.012,27.943-11.7,21.38-17.577,23.476-52.895,26.733-2.724,61.933c0,0,42.544,31.622,53.383-5.573,0,0-1.3-29.99,6.463-36.069s23.97-9.959,17.639-24.366c0,0-22.343,17.413-25.223-2.84Z" transform="translate(-586.542 -72.908)" fill="#de6c6b"/>
            <path id="Path_23455" data-name="Path 23455" d="M617.7,256.128c.222-6.641-1.719-12.611.813-19.117,3.276-8.42,10.664-15.3,3.6-24.473-.285-.37-.589-.726-.909-1.069a27.607,27.607,0,0,1-9.038,5.971c-5.573,1.988-48.157,24.263-9.693,56.593C610.712,271.591,617.4,265.257,617.7,256.128Z" transform="translate(-586.539 -61.494)" fill="#fff"/>
            <path id="Path_23456" data-name="Path 23456" d="M726.753,103.289s-.492.493-1.33,1.326l-4.037-4.73a1.918,1.918,0,1,0-1.2,1.027l4.114,4.82c-.891.884-1.982,1.96-3.205,3.163l-3.91-4.581a1.919,1.919,0,1,0-1.2,1.027l3.981,4.664c-1.294,1.266-2.694,2.629-4.134,4.021l-3.6-4.221a1.919,1.919,0,1,0-1.2,1.027l3.664,4.294c-1.4,1.345-2.813,2.692-4.185,3.983l-4.284-5.018a1.917,1.917,0,1,0-1.2,1.027l4.33,5.075c-1.347,1.256-2.629,2.432-3.789,3.465l-3.822-4.479a1.917,1.917,0,1,0-1.2,1.027l3.838,4.5a30.837,30.837,0,0,1-3.468,2.733c-4.3,2.562-1.046,7.266-1.046,7.266l-2.234,3.783-66.4,104.56s9.519,9.8,14.769,6.405l60.225-105.888c2.3-4.673,9.891-5.753,12.345-7.551s4.92-11.471,7.482-17.379,11.421-12.27,10.03-15.411S726.753,103.289,726.753,103.289Z" transform="translate(-572.603 -97.158)" fill="#f2df8f"/>
            <path id="Path_23457" data-name="Path 23457" d="M632.98,253.955h0a2.505,2.505,0,0,1-3.377,1.031l-20.932-11.147a2.5,2.5,0,0,1-1.03-3.376h0a2.5,2.5,0,0,1,3.377-1.03l20.932,11.145A2.5,2.5,0,0,1,632.98,253.955Z" transform="translate(-580.05 -52.86)" fill="#2b3448"/>
            <path id="Path_23458" data-name="Path 23458" d="M598.188,236.7a2.288,2.288,0,1,1-3.225-.256A2.287,2.287,0,0,1,598.188,236.7Z" transform="translate(-584.165 -53.871)" fill="#2b3448"/>
            <path id="Path_23459" data-name="Path 23459" d="M602.622,246.05a2.288,2.288,0,1,1-3.226-.256A2.287,2.287,0,0,1,602.622,246.05Z" transform="translate(-582.782 -50.955)" fill="#2b3448"/>
            <path id="Path_23460" data-name="Path 23460" d="M605.315,233.33a2.288,2.288,0,1,1-3.225-.256A2.286,2.286,0,0,1,605.315,233.33Z" transform="translate(-581.942 -54.923)" fill="#2b3448"/>
            <line id="Line_32" data-name="Line 32" y1="151.412" x2="94.006" transform="translate(33.249 38.872)" fill="none" stroke="#2b3448" stroke-width="0.603"/>
            <line id="Line_33" data-name="Line 33" y1="153.069" x2="93.988" transform="translate(35.34 39.745)" fill="none" stroke="#2b3448" stroke-width="0.606"/>
            <line id="Line_34" data-name="Line 34" y1="154.585" x2="92.678" transform="translate(38.079 40.828)" fill="none" stroke="#2b3448" stroke-width="0.626"/>
            <line id="Line_35" data-name="Line 35" y1="152.913" x2="91.544" transform="translate(42.382 41.723)" fill="none" stroke="#2b3448" stroke-width="0.603"/>
            <line id="Line_36" data-name="Line 36" y1="154.677" x2="88.532" transform="translate(46.048 43.373)" fill="none" stroke="#2b3448" stroke-width="0.603"/>
            <path id="Path_23461" data-name="Path 23461" d="M683.8,125.776l10.141,5.281-1.359,2.253-9.916-5.211Z" transform="translate(-556.552 -88.23)" fill="#2b3448"/>
            <path id="Path_23462" data-name="Path 23462" d="M671.995,144.186l10.14,5.281-1.359,2.253-9.916-5.211Z" transform="translate(-560.235 -82.486)" fill="#2b3448"/>
            <path id="Path_23463" data-name="Path 23463" d="M664.135,156.494l11.022,6.315-1.289,2.334-10.781-6.225Z" transform="translate(-562.66 -78.646)" fill="#2b3448"/>
            <path id="Path_23464" data-name="Path 23464" d="M639.738,195.7l12.635,6.967-1.567,2.73-12.358-6.87Z" transform="translate(-570.347 -66.412)" fill="#2b3448"/>
            <path id="Path_23465" data-name="Path 23465" d="M656.012,169.325l11.884,6.086-1.626,2.661-11.62-6.007Z" transform="translate(-565.292 -74.642)" fill="#2b3448"/>
            <path id="Path_23466" data-name="Path 23466" d="M647.2,182.6l12.024,7.488-1.211,2.427-11.764-7.377Z" transform="translate(-567.913 -70.502)" fill="#2b3448"/>
          </g>
          <path id="Path_23467" data-name="Path 23467" d="M629.5,244.3a.977.977,0,0,0,1.019-.129c1.075-.924-3.762-4.664-4.441-5.181.108-.094.217-.194.327-.3,2.205,1.708,6.412,4.949,6.931,5.231a1.11,1.11,0,0,0,1.258-.118c1.147-1.113-5.537-5.977-6.641-6.769q.246-.291.485-.588c2.489,1.669,7.875,5.265,8.5,5.562a1.132,1.132,0,0,0,1.324-.154c1.151-1.308-8.267-7.08-8.267-7.08-.064-.038-.127-.072-.189-.1.165-.227.323-.446.471-.655,2.4,1.275,7.343,3.886,7.918,4.082a1.113,1.113,0,0,0,1.22-.331c1.025-1.408-7.867-5.623-7.867-5.623l-4.213-3.981c.249-.411.849-.685,2.073-.59,2.373.182,2.522-.273,2.522-.273.55-2.17-3.458-2.089-6.955-2.682a8.919,8.919,0,0,0-5.817,1.169,1.9,1.9,0,0,0-.495.315l-2.88-1.8-4.882,5.783,5.008,4.3,8.319,5.618C625.548,241.118,629.083,244.073,629.5,244.3Z" transform="translate(-571.398 -57.487)" fill="#dc903c"/>
          <path id="Path_23468" data-name="Path 23468" d="M630.305,148.845l-6.012-1.394,2.352-14.855" transform="translate(-567.218 -86.102)" fill="none" stroke="#2b3448" stroke-linecap="round" stroke-width="1.159"/>
          <path id="Path_23469" data-name="Path 23469" d="M624.059,150.061s9.278,3.748,13.287.308" transform="translate(-567.292 -80.653)" fill="none" stroke="#2b3448" stroke-linecap="round" stroke-width="1.159"/>
          <path id="Path_23470" data-name="Path 23470" d="M632.819,142.154s.165-7.245,3.409-6.446,2.573,6.4,2.573,6.4" transform="translate(-564.559 -85.15)" fill="none" stroke="#2b3448" stroke-linecap="round" stroke-width="1.159"/>
          <path id="Path_23471" data-name="Path 23471" d="M619.185,139.249s.719-7.055,3.112-5.668,1.424,6.741,1.424,6.741" transform="translate(-568.812 -85.851)" fill="none" stroke="#2b3448" stroke-linecap="round" stroke-width="1.008"/>
          <path id="Path_23472" data-name="Path 23472" d="M663.094,128.051s-4.444,6.273-7.928,6.315-7.055-14.42-18.383-8.629c0,0-.827-5.924,9.847-3.7,0,0-9.017-5.447-20.737,6.661a53.244,53.244,0,0,1-8.277,1.043c-3.485.043,4.575-3.353,5.491-5.531s-.916,2.178-.916,2.178l-7.928-1.221c-2.265-.349,2.268-14.723,24.137-13.674l-18.733,1.173s4.1-11.543,24.527-4.917l-6.75-5.1S662.054,104.7,663.094,128.051Z" transform="translate(-570.512 -95.445)" fill="#2b3448"/>
          <path id="Path_23473" data-name="Path 23473" d="M644.865,128.356s6.888,6.016,6.27,11.257-5.773,13.975-3.095,15.151,4.04-8.907,8.235-7.688c0,0,6.08-14.973-2.829-25.066C653.446,122.01,643.09,125.034,644.865,128.356Z" transform="translate(-560.864 -89.405)" fill="#2b3448" opacity="0.42"/>
          <g id="Group_23115" data-name="Group 23115" transform="translate(88.869 55.634)">
            <path id="Path_23474" data-name="Path 23474" d="M657.492,150c-1.667,4.975-4.8,8.41-6.994,7.674s-2.621-5.365-.954-10.34,4.8-8.41,7-7.674S659.161,145.028,657.492,150Z" transform="translate(-648.526 -139.562)" fill="#dc903c"/>
            <path id="Path_23475" data-name="Path 23475" d="M655.022,148.785c-.878,3.226-2.742,5.529-4.166,5.142s-1.867-3.317-.991-6.543,2.743-5.529,4.167-5.142S655.9,145.559,655.022,148.785Z" transform="translate(-648.249 -138.74)" fill="#74471b" opacity="0.18"/>
          </g>
          <path id="Path_23476" data-name="Path 23476" d="M656.3,150.366l-4.105-.975a1.115,1.115,0,0,1-.825-1.337h0a1.115,1.115,0,0,1,1.338-.824l4.105.975a1.113,1.113,0,0,1,.824,1.337h0A1.113,1.113,0,0,1,656.3,150.366Z" transform="translate(-558.78 -81.545)" fill="#2b3448"/>
          <path id="Path_23477" data-name="Path 23477" d="M677.071,180.425c.673-1.015.55-4.82.783-7.351.325-3.532,1.433-7.384-.8-7.411,0,0-.479.026-.912,2.368-.224,1.207-.643,1.715-1.1,1.851l-2.764-5.094s-1.79-9.676-3.413-9.048a1.11,1.11,0,0,0-.632,1.094c.041.606,1.294,6.054,1.909,8.7-.24.089-.492.185-.753.287-.016-.068-.033-.138-.053-.21,0,0-3.158-10.584-4.717-9.809a1.132,1.132,0,0,0-.489,1.24c.127.677,2.219,6.805,3.191,9.639-.231.1-.463.21-.691.319-.482-1.273-3.465-8.981-4.836-8.159a1.114,1.114,0,0,0-.437,1.187c.14.573,2.191,5.471,3.275,8.043-.129.079-.253.159-.373.239-.325-.79-2.7-6.425-3.865-5.623a.973.973,0,0,0-.386.951c.115.462,2.063,4.637,2.8,6.2l3.29,9.483,1.141,2.371-.293.077S668.5,258.91,690,239.947C690,239.947,700.159,231.41,677.071,180.425Z" transform="translate(-556.085 -78.89)" fill="#dc903c"/>
          <path id="Path_23478" data-name="Path 23478" d="M581.429,205.184s-1.7,13.369,44.534,37.57l4.478-8.928S587.021,182.563,581.429,205.184Z" transform="translate(-580.595 -65.253)" fill="#dc903c"/>
          <g id="Group_23116" data-name="Group 23116" transform="translate(106.776 365.713)">
            <path id="Path_23479" data-name="Path 23479" d="M668.975,378.318s-11.919,20.908-4.2,22.914,30.386.038,28.659-7.778S681.653,375.9,681.653,375.9Z" transform="translate(-662.175 -375.903)" fill="#2b3448"/>
            <path id="Path_23480" data-name="Path 23480" d="M692,386.849c-10.718-4.143-21.735.7-29.431,9.757a3.087,3.087,0,0,0,2.089,1.678c7.724,2.006,30.386.038,28.659-7.778A17.626,17.626,0,0,0,692,386.849Z" transform="translate(-662.053 -372.955)" fill="#fff"/>
            <path id="Path_23481" data-name="Path 23481" d="M669,384.457s5.357-4.463,11.161-2.232" transform="translate(-660.045 -374.125)" fill="none" stroke="#fff" stroke-width="0.922"/>
            <path id="Path_23482" data-name="Path 23482" d="M668.321,381.735s5.358-4.465,11.161-2.232" transform="translate(-660.258 -374.975)" fill="none" stroke="#fff" stroke-width="0.922"/>
          </g>
          <g id="Group_23117" data-name="Group 23117" transform="translate(16.162 358.119)">
            <path id="Path_23483" data-name="Path 23483" d="M635.573,370.115a28.713,28.713,0,0,1,7.379,16.45s-10.052,4.953-12.477,14.54-32.8,4.023-36.788.993c0,0-3.908-9.634,8.634-10.66s17.494-6.959,16.085-10.736-2.4-8.6-1.586-8.486,3.662,5.278,3.662,5.278Z" transform="translate(-593.11 -370.115)" fill="#2b3448"/>
            <path id="Path_23484" data-name="Path 23484" d="M626.456,392.209c-3.832,2.083-8.734,3.409-12.956,1.766-2.99-1.162-5.395-3.5-7.941-5.577-1.023.171-2.087.319-3.238.413-12.543,1.026-8.634,10.66-8.634,10.66,3.992,3.029,34.365,8.594,36.788-.993s12.477-14.54,12.477-14.54a31.386,31.386,0,0,0-1.141-5.4C636.844,383.164,632.752,388.789,626.456,392.209Z" transform="translate(-593.11 -367.488)" fill="#fff"/>
            <path id="Path_23485" data-name="Path 23485" d="M609.11,384.266s4.019-2.233,5.8,1.786" transform="translate(-588.118 -365.893)" fill="none" stroke="#fff" stroke-width="0.922"/>
            <path id="Path_23486" data-name="Path 23486" d="M612.513,380.784s4.019-1.34,6.25,1.786" transform="translate(-587.056 -366.875)" fill="none" stroke="#fff" stroke-width="0.922"/>
          </g>
        </g>
      </g>
    </g>
  </g>
</svg>
