<svg xmlns="http://www.w3.org/2000/svg" width="40.561" height="40.562" viewBox="0 0 40.561 40.562">
  <g id="link" transform="translate(0.993 1)">
    <g id="Group_23022" data-name="Group 23022" transform="translate(-0.993 -1)">
      <g id="Group_23021" data-name="Group 23021" transform="translate(0 0)">
        <path id="Path_23233" data-name="Path 23233" d="M15.822,193.8l-4.78,4.78a5.07,5.07,0,1,1-7.171-7.169l9.561-9.561a5.069,5.069,0,0,1,7.169,0,1.69,1.69,0,1,0,2.39-2.39,8.449,8.449,0,0,0-11.949,0l-9.561,9.561a8.45,8.45,0,0,0,11.951,11.949l4.78-4.78a1.69,1.69,0,1,0-2.39-2.39Z" transform="translate(0.993 -162.886)" fill="#0086b5"/>
        <path id="Path_23234" data-name="Path 23234" d="M212.9,1.474a8.451,8.451,0,0,0-11.951,0L195.21,7.209A1.69,1.69,0,0,0,197.6,9.6l5.734-5.734a5.07,5.07,0,0,1,7.171,7.169L199.99,21.549a5.069,5.069,0,0,1-7.169,0,1.69,1.69,0,0,0-2.39,2.39,8.449,8.449,0,0,0,11.949,0L212.9,13.424A8.449,8.449,0,0,0,212.9,1.474Z" transform="translate(-174.81 1)" fill="#0086b5"/>
      </g>
    </g>
  </g>
</svg>
