<svg xmlns="http://www.w3.org/2000/svg" width="46.2" height="65.707" viewBox="0 0 46.2 65.707">
  <g id="Group_23019" data-name="Group 23019" transform="translate(-60.836 -1824.742)">
    <path id="Path_23231" data-name="Path 23231" d="M99.1,0A23.118,23.118,0,0,0,76,23.1a22.779,22.779,0,0,0,3.465,12.128L97.534,64.8a1.824,1.824,0,0,0,1.309.886,1.916,1.916,0,0,0,1.964-.924l18.121-29.84A22.783,22.783,0,0,0,122.2,23.1,23.118,23.118,0,0,0,99.1,0Zm0,34.65A11.55,11.55,0,1,1,110.65,23.1,11.535,11.535,0,0,1,99.1,34.65Z" transform="translate(-15.164 1824.742)" fill="#fd003a"/>
    <path id="Path_23232" data-name="Path 23232" d="M256,0V11.55a11.55,11.55,0,1,1,0,23.1V65.706a1.906,1.906,0,0,0,1.707-.946l18.121-29.84A22.781,22.781,0,0,0,279.1,23.1,23.118,23.118,0,0,0,256,0Z" transform="translate(-172.064 1824.742)" fill="#e50027"/>
  </g>
</svg>
