<svg xmlns="http://www.w3.org/2000/svg" width="42.369" height="71.013" viewBox="0 0 42.369 71.013">
  <g id="Group_23052" data-name="Group 23052" transform="translate(-0.3 -0.3)">
    <path id="Path_23250" data-name="Path 23250" d="M7.161,71.313A6.881,6.881,0,0,1,.3,64.451V7.161A6.882,6.882,0,0,1,7.162.3H35.806a6.88,6.88,0,0,1,6.861,6.862V64.451a6.879,6.879,0,0,1-6.861,6.862H7.161Zm0-68.752a4.606,4.606,0,0,0-4.6,4.6v57.29a4.606,4.606,0,0,0,4.6,4.6H35.806a4.605,4.605,0,0,0,4.6-4.6V7.161a4.605,4.605,0,0,0-4.6-4.6Z"/>
    <path id="Path_23251" data-name="Path 23251" d="M18.619,8.293a1.132,1.132,0,1,1,0-2.264h5.731A1.135,1.135,0,0,1,25.479,7.16a1.135,1.135,0,0,1-1.131,1.133Z"/>
    <path id="Path_23252" data-name="Path 23252" d="M21.483,65.583a1.132,1.132,0,1,1,1.132-1.132A1.134,1.134,0,0,1,21.483,65.583Z"/>
    <path id="Path_23253" data-name="Path 23253" d="M1.435,14.022a1.132,1.132,0,1,1,0-2.264h40.1a1.132,1.132,0,1,1,0,2.264Z"/>
    <path id="Path_23254" data-name="Path 23254" d="M1.435,59.855a1.132,1.132,0,1,1,0-2.265h40.1a1.132,1.132,0,1,1,0,2.265Z"/>
  </g>
</svg>
