<svg xmlns="http://www.w3.org/2000/svg" width="50.459" height="50.466" viewBox="0 0 50.459 50.466">
  <g id="multiple" transform="translate(-0.007)" opacity="0.9">
    <path id="Path_22996" data-name="Path 22996" d="M45.059,43.257H12.617a5.407,5.407,0,0,1-5.408-5.406h0V5.407A5.407,5.407,0,0,1,12.616,0H45.059a5.407,5.407,0,0,1,5.407,5.407h0V37.85a5.407,5.407,0,0,1-5.407,5.407Zm-1.8,5.4a1.8,1.8,0,0,0-1.8-1.8H5.407a1.8,1.8,0,0,1-1.8-1.8V9.012a1.8,1.8,0,1,0-3.6,0V45.059a5.407,5.407,0,0,0,5.407,5.407h36.04a1.8,1.8,0,0,0,1.8-1.8v-.01Z" fill="#fff"/>
  </g>
</svg>
