<svg width="71" height="71" viewBox="0 0 71 71" fill="none" xmlns="http://www.w3.org/2000/svg">
    <g clip-path="url(#clip0_3_2)">
        <path d="M66.288 38.348V24.306C66.2888 23.9053 66.1799 23.5121 65.973 23.169L54 3.215C53.4077 2.23722 52.5741 1.42804 51.5791 0.865064C50.5841 0.30209 49.4612 0.00421149 48.318 0H17.97C16.8259 0.00344664 15.7019 0.301181 14.7061 0.864575C13.7103 1.42797 12.8762 2.23807 12.284 3.217L0.315 23.168C0.10793 23.5114 -0.00101954 23.905 -5.46564e-07 24.306V59.659C0.00185243 61.4166 0.700858 63.1016 1.94364 64.3444C3.18641 65.5871 4.87145 66.2861 6.629 66.288H38.348C42.1633 69.3758 46.9867 70.9418 51.8882 70.6842C56.7897 70.4266 61.4223 68.3636 64.8929 64.8929C68.3636 61.4223 70.4266 56.7897 70.6842 51.8882C70.9418 46.9867 69.3758 42.1633 66.288 38.348ZM35.354 4.419H48.318C48.7001 4.4196 49.0756 4.51854 49.4083 4.70629C49.7411 4.89404 50.0199 5.16428 50.218 5.491L60.179 22.091H35.354V4.419ZM16.073 5.494C16.2706 5.16659 16.5492 4.89565 16.882 4.70734C17.2148 4.51903 17.5906 4.41972 17.973 4.419H30.934V22.1H6.112L16.073 5.494ZM6.629 61.869C6.04295 61.8687 5.48098 61.6358 5.06659 61.2214C4.65219 60.807 4.41926 60.245 4.419 59.659V26.515H61.869V34.3C58.0458 31.7424 53.4538 30.5902 48.876 31.0398C44.2982 31.4894 40.0181 33.513 36.7656 36.7656C33.513 40.0181 31.4894 44.2982 31.0398 48.876C30.5902 53.4538 31.7424 58.0458 34.3 61.869H6.629ZM50.821 66.288C47.7619 66.288 44.7715 65.3809 42.228 63.6813C39.6845 61.9818 37.702 59.5662 36.5314 56.74C35.3607 53.9137 35.0544 50.8038 35.6512 47.8035C36.248 44.8032 37.7211 42.0473 39.8842 39.8842C42.0473 37.7211 44.8032 36.248 47.8035 35.6512C50.8038 35.0544 53.9137 35.3607 56.74 36.5314C59.5662 37.702 61.9818 39.6845 63.6813 42.228C65.3809 44.7715 66.288 47.7619 66.288 50.821C66.283 54.9216 64.6518 58.8527 61.7523 61.7523C58.8527 64.6518 54.9216 66.283 50.821 66.288V66.288ZM24.306 35.354C24.3061 35.6443 24.2491 35.9317 24.138 36.1999C24.027 36.4681 23.8642 36.7118 23.659 36.917C23.4538 37.1222 23.2101 37.285 22.9419 37.396C22.6737 37.5071 22.3863 37.5641 22.096 37.564H13.258C12.6801 37.5517 12.1301 37.3135 11.7258 36.9005C11.3214 36.4875 11.095 35.9325 11.095 35.3545C11.095 34.7765 11.3214 34.2215 11.7258 33.8085C12.1301 33.3955 12.6801 33.1573 13.258 33.145H22.1C22.6853 33.1458 23.2464 33.3789 23.6601 33.7931C24.0737 34.2072 24.306 34.7687 24.306 35.354ZM59.012 45.754L53.945 50.821L59.012 55.888C59.2171 56.0931 59.3798 56.3366 59.4909 56.6047C59.6019 56.8727 59.659 57.1599 59.659 57.45C59.659 57.7401 59.6019 58.0273 59.4909 58.2953C59.3798 58.5634 59.2171 58.8069 59.012 59.012C58.8069 59.2171 58.5634 59.3798 58.2953 59.4909C58.0273 59.6019 57.7401 59.659 57.45 59.659C57.1599 59.659 56.8727 59.6019 56.6047 59.4909C56.3366 59.3798 56.0931 59.2171 55.888 59.012L50.821 53.945L45.754 59.012C45.5489 59.2171 45.3054 59.3798 45.0373 59.4909C44.7693 59.6019 44.4821 59.659 44.192 59.659C43.9019 59.659 43.6147 59.6019 43.3467 59.4909C43.0786 59.3798 42.8351 59.2171 42.63 59.012C42.4249 58.8069 42.2622 58.5634 42.1511 58.2953C42.0401 58.0273 41.983 57.7401 41.983 57.45C41.983 57.1599 42.0401 56.8727 42.1511 56.6047C42.2622 56.3366 42.4249 56.0931 42.63 55.888L47.7 50.821L42.63 45.754C42.2157 45.3397 41.983 44.7779 41.983 44.192C41.983 43.6061 42.2157 43.0443 42.63 42.63C43.0443 42.2157 43.6061 41.983 44.192 41.983C44.7779 41.983 45.3397 42.2157 45.754 42.63L50.821 47.7L55.888 42.633C56.3023 42.2187 56.8641 41.986 57.45 41.986C58.0359 41.986 58.5977 42.2187 59.012 42.633C59.4263 43.0473 59.659 43.6091 59.659 44.195C59.659 44.7809 59.4263 45.3427 59.012 45.757V45.754Z" fill="#9A9A9A"/>
    </g>
    <defs>
        <clipPath id="clip0_3_2">
            <rect width="70.707" height="70.707" fill="white"/>
        </clipPath>
    </defs>
</svg>
