<svg width="84" height="84" viewBox="0 0 84 84" fill="none" xmlns="http://www.w3.org/2000/svg">
  <path d="M26.1632 60.6898C25.8442 60.6898 25.5324 60.7844 25.2672 60.9617C25.002 61.1389 24.7953 61.3908 24.6732 61.6856C24.5512 61.9803 24.5192 62.3046 24.5815 62.6175C24.6437 62.9304 24.7973 63.2178 25.0228 63.4434C25.2484 63.669 25.5357 63.8226 25.8485 63.8848C26.1614 63.9471 26.4856 63.9152 26.7803 63.7931C27.075 63.671 27.3269 63.4642 27.5041 63.199C27.6813 62.9337 27.7758 62.6219 27.7758 62.3028C27.7756 61.8751 27.6056 61.465 27.3032 61.1625C27.0008 60.8601 26.5908 60.6901 26.1632 60.6898V60.6898Z" fill="#9A9A9A" stroke="#9A9A9A" stroke-width="0.4"/>
  <path d="M73.6075 31.6526L83.1125 22.1457C83.3102 21.9492 83.4537 21.7048 83.5288 21.4364C83.604 21.1679 83.6083 20.8846 83.5414 20.614C83.4744 20.3434 83.3385 20.0947 83.1469 19.8923C82.9552 19.6899 82.7144 19.5406 82.4479 19.459L59.3013 12.3183C58.3081 9.14252 56.3575 6.3515 53.7168 4.32761C51.076 2.30371 47.8742 1.14595 44.55 1.01291C41.2258 0.879866 37.9418 1.77806 35.1478 3.58445C32.3538 5.39084 30.1865 8.01706 28.9428 11.1034L2.13306 19.462C1.86802 19.5446 1.62877 19.6942 1.43848 19.8963C1.24819 20.0985 1.1133 20.3464 1.04686 20.616C0.980425 20.8856 0.984695 21.1678 1.05926 21.4352C1.13382 21.7027 1.27615 21.9464 1.47247 22.1427L11.2272 31.8994L5.08086 42.1596C4.95659 42.3667 4.88043 42.5992 4.85801 42.8397C4.8356 43.0803 4.86749 43.3228 4.95134 43.5494C5.03519 43.776 5.16885 43.9808 5.34246 44.1488C5.51606 44.3168 5.72518 44.4436 5.95436 44.5199L14.8773 47.4952V72.3073C14.8773 72.6357 14.9775 72.9563 15.1645 73.2262C15.3516 73.4961 15.6165 73.7025 15.9239 73.8178C21.3798 75.8637 41.6523 83.47 41.7617 83.5078C42.0926 83.6242 42.4525 83.6291 42.7864 83.5218H42.8004L71.8366 73.8377C72.1579 73.7307 72.4373 73.5254 72.6353 73.2507C72.8334 72.976 72.9399 72.6459 72.9399 72.3073V46.8334L82.4559 43.8422C82.7204 43.7591 82.9591 43.6091 83.1488 43.4068C83.3384 43.2045 83.4728 42.9567 83.5388 42.6874C83.6048 42.418 83.6002 42.1361 83.5256 41.869C83.4509 41.6019 83.3086 41.3586 83.1125 41.1625L73.6075 31.6526ZM60.0355 17.1335C60.0355 16.7235 60.0186 16.3146 59.9877 15.9066L78.939 21.7576L70.8905 29.8077L57.7403 25.4235C59.2393 22.9179 60.0323 20.0533 60.0355 17.1335ZM31.7006 12.9343C32.6895 10.0403 34.6737 7.59159 37.2996 6.02465C39.9255 4.45772 43.0224 3.8744 46.0383 4.37868C49.0541 4.88296 51.793 6.44206 53.7665 8.77807C55.7401 11.1141 56.8201 14.0752 56.8141 17.1335C56.8142 18.8284 56.4806 20.5067 55.8321 22.0726C55.1837 23.6385 54.2333 25.0613 53.035 26.2598C51.8368 27.4582 50.4143 28.4089 48.8487 29.0574C47.2831 29.706 45.6052 30.0397 43.9106 30.0396C41.856 30.0379 39.8314 29.5459 38.005 28.6044C36.1787 27.663 34.6032 26.2993 33.4096 24.6266C32.216 22.9538 31.4386 21.0204 31.1421 18.9869C30.8455 16.9533 31.0384 14.8783 31.7046 12.9343H31.7006ZM5.64098 21.7506L27.9479 14.7931C27.8344 15.5677 27.7768 16.3496 27.7758 17.1325C27.7728 19.7016 28.387 22.2338 29.5666 24.5159L13.6954 29.8067L5.64098 21.7506ZM8.87729 42.0949L13.977 33.593L39.8754 42.2272L34.7757 50.7291L8.87729 42.0949ZM40.6803 79.6599L18.0967 71.1898V48.5708C35.8631 54.4626 34.9956 54.2825 35.491 54.2825C35.7697 54.2826 36.0436 54.2105 36.2861 54.0733C36.5286 53.9361 36.7315 53.7383 36.8749 53.4994L40.6793 47.1578L40.6803 79.6599ZM42.289 39.6321L18.3604 31.6526L31.3932 27.3081C32.8463 29.0969 34.6658 30.5533 36.7292 31.5793C38.7926 32.6054 41.0519 33.1772 43.3548 33.2562C45.6578 33.3352 47.9509 32.9196 50.0797 32.0374C52.2085 31.1552 54.1236 29.8269 55.6959 28.142L66.2256 31.6526L42.289 39.6321ZM69.7136 71.145L43.9067 79.7494V45.9309L49.6252 53.0795C49.8284 53.3334 50.1035 53.52 50.4145 53.6148C50.7255 53.7096 51.0579 53.7083 51.3682 53.6109L69.7146 47.8444L69.7136 71.145ZM51.4537 50.2017L44.998 42.1307L70.8915 33.4985L78.9499 41.5586L51.4537 50.2017Z" fill="#9A9A9A" stroke="#9A9A9A" stroke-width="0.4"/>
  <path d="M36.4073 64.2731L32.8198 62.9277C32.6215 62.8533 32.4105 62.8187 32.1988 62.8259C31.9871 62.833 31.7788 62.8818 31.586 62.9695C31.3931 63.0571 31.2194 63.1819 31.0748 63.3367C30.9302 63.4914 30.8174 63.6732 30.743 63.8716C30.6686 64.0699 30.634 64.281 30.6412 64.4927C30.6483 64.7045 30.6971 64.9128 30.7847 65.1056C30.8724 65.2985 30.9971 65.4723 31.1519 65.6169C31.3066 65.7616 31.4883 65.8744 31.6867 65.9488L35.2742 67.2941C35.6747 67.4444 36.1185 67.4294 36.508 67.2524C36.8975 67.0754 37.2007 66.7509 37.3509 66.3503C37.5012 65.9497 37.4862 65.5058 37.3092 65.1162C37.1323 64.7267 36.8078 64.4234 36.4073 64.2731V64.2731Z" fill="#9A9A9A" stroke="#9A9A9A" stroke-width="0.4"/>
  <path d="M36.4073 71.164L26.7292 67.5339C26.3287 67.3836 25.8849 67.3986 25.4954 67.5756C25.1059 67.7526 24.8027 68.0771 24.6524 68.4778C24.5022 68.8784 24.5172 69.3223 24.6941 69.7118C24.8711 70.1014 25.1955 70.4047 25.5961 70.555L35.2742 74.185C35.6747 74.3353 36.1185 74.3203 36.508 74.1433C36.8975 73.9663 37.2007 73.6418 37.351 73.2412C37.5012 72.8405 37.4862 72.3967 37.3093 72.0071C37.1323 71.6175 36.8079 71.3143 36.4073 71.164V71.164Z" fill="#9A9A9A" stroke="#9A9A9A" stroke-width="0.4"/>
  <path d="M53.1112 11.1521C52.9614 11.0023 52.7836 10.8834 52.5879 10.8023C52.3922 10.7211 52.1824 10.6794 51.9706 10.6794C51.7587 10.6794 51.549 10.7211 51.3532 10.8023C51.1575 10.8834 50.9797 11.0023 50.8299 11.1521L42.293 19.6908L40.2037 17.6012C39.9012 17.2986 39.4909 17.1286 39.0631 17.1286C38.6353 17.1286 38.225 17.2986 37.9225 17.6012C37.62 17.9038 37.4501 18.3141 37.4501 18.742C37.4501 19.1699 37.62 19.5803 37.9225 19.8829L41.1489 23.1089C41.4515 23.4113 41.8617 23.5812 42.2895 23.5812C42.7173 23.5812 43.1275 23.4113 43.4301 23.1089L53.1082 13.4288C53.4094 13.1268 53.5789 12.7177 53.5794 12.2911C53.58 11.8645 53.4116 11.455 53.1112 11.1521V11.1521Z" fill="#9A9A9A" stroke="#9A9A9A" stroke-width="0.4"/>
</svg>
