<svg xmlns="http://www.w3.org/2000/svg" width="46.55" height="46.552" viewBox="0 0 46.55 46.552">
  <g id="play-music" transform="translate(-9111.761 -4283.5)">
    <path id="Path_23093" data-name="Path 23093" d="M137.578,90.356a22.818,22.818,0,1,1,16.091-6.683,22.774,22.774,0,0,1-16.091,6.683Zm0-43.381a20.643,20.643,0,1,0,14.559,6.046,20.6,20.6,0,0,0-14.559-6.046Z" transform="translate(8997.458 4239.194)" stroke="#000" stroke-width="1"/>
    <path id="Path_23094" data-name="Path 23094" d="M311.078,204.484l-10.937-6.318a1.627,1.627,0,0,0-2.44,1.41v12.635h0a1.627,1.627,0,0,0,2.44,1.41l10.937-6.318a1.627,1.627,0,0,0,0-2.819Z" transform="translate(8832.271 4100.88)"/>
  </g>
</svg>
