<svg xmlns="http://www.w3.org/2000/svg" width="53.683" height="53.683" viewBox="0 0 53.683 53.683">
  <g id="user_1_" data-name="user (1)" transform="translate(0.5 0.5)">
    <g id="Group_23149" data-name="Group 23149" transform="translate(0 0)">
      <path id="Path_23500" data-name="Path 23500" d="M44.967,7.715A26.341,26.341,0,0,0,7.715,44.967,26.341,26.341,0,0,0,44.967,7.715ZM26.341,49.6A23.174,23.174,0,0,1,10.206,43.07a16.982,16.982,0,0,1,32.271,0A23.174,23.174,0,0,1,26.341,49.6ZM18.624,20.579A7.717,7.717,0,1,1,26.341,28.3,7.726,7.726,0,0,1,18.624,20.579Zm26.17,19.9A20.122,20.122,0,0,0,32.676,29.326a10.8,10.8,0,1,0-12.669,0A20.122,20.122,0,0,0,7.888,40.474a23.254,23.254,0,1,1,36.907,0Z" transform="translate(0 0)" stroke="#000" stroke-width="1"/>
    </g>
  </g>
</svg>
