<svg xmlns="http://www.w3.org/2000/svg" width="70.7" height="51.209" viewBox="0 0 70.7 51.209">
  <g id="Group_23020" data-name="Group 23020" transform="translate(-48 -1933.381)">
    <path id="Path_23227" data-name="Path 23227" d="M138.929,87.627c0,9.4-7.988,20.448-29.885,34.157C87.148,108.075,79.16,97.027,79.16,87.627A17.05,17.05,0,0,1,109.045,76.4a17.05,17.05,0,0,1,29.885,11.226Z" transform="translate(-20.229 1862.806)" fill="#ffa0b6"/>
    <path id="Path_23228" data-name="Path 23228" d="M325.465,87.627c0,9.4-7.988,20.448-29.885,34.157V76.4a17.05,17.05,0,0,1,29.885,11.226Z" transform="translate(-206.764 1862.806)" fill="#fc70a2"/>
    <path id="Path_23229" data-name="Path 23229" d="M44.2,179.758c0,6.951-5.909,15.122-22.1,25.262C5.909,194.88,0,186.709,0,179.758a12.609,12.609,0,0,1,22.1-8.3,12.609,12.609,0,0,1,22.1,8.3Z" transform="translate(48 1779.571)" fill="#fc70a2"/>
    <path id="Path_23230" data-name="Path 23230" d="M182.162,179.758c0,6.951-5.909,15.122-22.1,25.262V171.455a12.609,12.609,0,0,1,22.1,8.3Z" transform="translate(-89.958 1779.571)" fill="#f24986"/>
  </g>
</svg>
