<svg xmlns="http://www.w3.org/2000/svg" width="47.083" height="55.649" viewBox="0 0 47.083 55.649">
  <path id="bookmark" d="M49.943,56.642a2.353,2.353,0,0,1-1.327-.408L28.542,42.324,8.488,56.234a2.41,2.41,0,0,1-2.272.233A1.852,1.852,0,0,1,5,54.787V2.855A2.013,2.013,0,0,1,7.14,1h42.8a2.013,2.013,0,0,1,2.14,1.855V54.787a1.855,1.855,0,0,1-1.22,1.669,2.2,2.2,0,0,1-.92.185Zm-21.4-18.547a2.355,2.355,0,0,1,1.348.408L47.8,50.93V4.709H9.28V50.93L27.215,38.5a2.353,2.353,0,0,1,1.327-.408Z" transform="translate(-5 -1)"/>
</svg>
