<svg width="64" height="71" viewBox="0 0 64 71" fill="none" xmlns="http://www.w3.org/2000/svg">
  <g clip-path="url(#clip0_4_21)">
    <path d="M63.396 19.183L63.342 19.089C63.2672 18.9341 63.181 18.785 63.084 18.643L52.91 1.054C52.5479 0.430313 52.0287 -0.0875534 51.404 -0.447955C50.7794 -0.808357 50.0712 -0.9987 49.35 -1L14.338 -1C13.6157 -0.998891 12.9063 -0.808124 12.2808 -0.446785C11.6554 -0.0854458 11.1358 0.433797 10.774 1.059L0.438 19C0.347832 19.1572 0.277942 19.3252 0.23 19.5C0.0803391 19.9036 0.00381099 20.3306 0.00400197 20.761V67.089C0.00558986 68.4252 0.537095 69.7062 1.48193 70.6511C2.42677 71.5959 3.7078 72.1274 5.044 72.129H58.644C59.9802 72.1274 61.2612 71.5959 62.2061 70.6511C63.1509 69.7062 63.6824 68.4252 63.684 67.089V20.59C63.684 20.528 63.684 20.466 63.679 20.405C63.7093 19.9785 63.6107 19.5528 63.396 19.183ZM34.059 3.286H49.25L57.25 17.122H34.059V3.286ZM14.437 3.286H29.772V17.123H6.461L14.437 3.286ZM59.398 67.086C59.3977 67.2856 59.3183 67.477 59.1772 67.6182C59.036 67.7593 58.8446 67.8387 58.645 67.839H5.038C4.83837 67.8387 4.647 67.7593 4.50584 67.6182C4.36468 67.477 4.28526 67.2856 4.285 67.086V21.409H59.398V67.086Z" fill="#9A9A9A"/>
    <path d="M41.167 37.203C40.968 37.004 40.7317 36.8461 40.4717 36.7383C40.2117 36.6306 39.933 36.5752 39.6515 36.5752C39.37 36.5752 39.0913 36.6306 38.8313 36.7383C38.5713 36.8461 38.335 37.004 38.136 37.203L28.566 46.773L24.886 43.093C24.4841 42.6911 23.9389 42.4653 23.3705 42.4653C22.8021 42.4653 22.2569 42.6911 21.855 43.093C21.4531 43.4949 21.2273 44.0401 21.2273 44.6085C21.2273 45.1769 21.4531 45.7221 21.855 46.124L27.055 51.324C27.254 51.5231 27.4903 51.6809 27.7503 51.7887C28.0103 51.8964 28.289 51.9518 28.5705 51.9518C28.852 51.9518 29.1307 51.8964 29.3907 51.7887C29.6507 51.6809 29.887 51.5231 30.086 51.324L41.171 40.239C41.3705 40.0397 41.5288 39.8029 41.6366 39.5422C41.7444 39.2816 41.7997 39.0022 41.7994 38.7202C41.799 38.4381 41.7429 38.1589 41.6344 37.8986C41.5259 37.6382 41.3671 37.4018 41.167 37.203Z" fill="#9A9A9A"/>
  </g>
  <defs>
    <clipPath id="clip0_4_21">
      <rect width="63.685" height="73.129" fill="white" transform="translate(0 -1)"/>
    </clipPath>
  </defs>
</svg>
