<svg id="_013-sofa" data-name="013-sofa" xmlns="http://www.w3.org/2000/svg" width="82.023" height="46.48" viewBox="0 0 82.023 46.48">
  <path id="Path_23241" data-name="Path 23241" d="M91.938,128.2a6.075,6.075,0,0,0-3.484,1.089v-2.456A6.843,6.843,0,0,0,81.619,120H32.4a6.843,6.843,0,0,0-6.835,6.835v2.456a6.094,6.094,0,0,0-9.569,5v.03a6.079,6.079,0,0,0,.277,1.816L21.7,153.481a6.8,6.8,0,0,0,6.359,4.793l-1.1,6.614A1.367,1.367,0,0,0,28.3,166.48h2.734a1.367,1.367,0,0,0,1.137-.609l5.062-7.594H76.786l5.062,7.594a1.367,1.367,0,0,0,1.137.609H85.72a1.367,1.367,0,0,0,1.348-1.592l-1.1-6.614a6.8,6.8,0,0,0,6.359-4.793l5.421-17.348a6.078,6.078,0,0,0,.277-1.815v-.03A6.092,6.092,0,0,0,91.938,128.2ZM32.4,122.734H81.619a4.106,4.106,0,0,1,4.1,4.1v6.971l-2.359,7.666a5.464,5.464,0,0,0-4.477-2.334H61.113a5.456,5.456,0,0,0-4.1,1.858,5.455,5.455,0,0,0-4.1-1.858H35.139a5.464,5.464,0,0,0-4.477,2.334L28.3,133.807v-6.971A4.106,4.106,0,0,1,32.4,122.734Zm23.24,23.24H32.4v-1.367a2.737,2.737,0,0,1,2.734-2.734H52.91a2.737,2.737,0,0,1,2.734,2.734Zm25.974,0H58.379v-1.367a2.737,2.737,0,0,1,2.734-2.734H78.885a2.737,2.737,0,0,1,2.734,2.734ZM30.306,163.746h-.389l.911-5.468h3.123Zm53.411,0-3.646-5.468h3.123l.911,5.468Zm11.572-29.428a3.348,3.348,0,0,1-.153,1l-5.421,17.348a4.083,4.083,0,0,1-3.914,2.878H28.222a4.084,4.084,0,0,1-3.914-2.878l-5.421-17.349a3.348,3.348,0,0,1-.153-1v-.03a3.351,3.351,0,0,1,6.553-.986l4.444,14.441a1.367,1.367,0,0,0,1.307.965H82.986a1.367,1.367,0,0,0,1.307-.965L88.736,133.3a3.351,3.351,0,0,1,6.553.986Z" transform="translate(-16 -120)"/>
  <rect id="Rectangle_17439" data-name="Rectangle 17439" width="2.734" height="2.734" transform="translate(20.506 9.569)"/>
  <rect id="Rectangle_17440" data-name="Rectangle 17440" width="2.734" height="2.734" transform="translate(30.075 9.569)"/>
  <rect id="Rectangle_17441" data-name="Rectangle 17441" width="2.734" height="2.734" transform="translate(39.645 9.569)"/>
  <rect id="Rectangle_17442" data-name="Rectangle 17442" width="2.734" height="2.734" transform="translate(49.214 9.569)"/>
  <rect id="Rectangle_17443" data-name="Rectangle 17443" width="2.734" height="2.734" transform="translate(58.783 9.569)"/>
</svg>
