<svg xmlns="http://www.w3.org/2000/svg" width="25.778" height="34.372" viewBox="0 0 25.778 34.372">
  <g id="_001-sort" data-name="001-sort" transform="translate(-14 -8)">
    <path id="Path_23264" data-name="Path 23264" d="M26.47,13.432,21.457,8.42a1.432,1.432,0,0,0-2.025,0L14.42,13.432a1.432,1.432,0,0,0,2.025,2.025l2.568-2.568v28.05a1.432,1.432,0,1,0,2.864,0V12.889l2.568,2.568a1.432,1.432,0,0,0,2.025-2.025Z" transform="translate(0 0)"/>
    <path id="Path_23265" data-name="Path 23265" d="M44.47,34.914a1.432,1.432,0,0,0-2.025,0l-2.568,2.568V9.432a1.432,1.432,0,0,0-2.864,0v28.05l-2.568-2.568a1.432,1.432,0,0,0-2.025,2.025l5.013,5.013a1.431,1.431,0,0,0,2.025,0l5.013-5.013a1.432,1.432,0,0,0,0-2.025Z" transform="translate(-5.111 0)"/>
  </g>
</svg>
