<svg width="89" height="62" viewBox="0 0 89 62" fill="none" xmlns="http://www.w3.org/2000/svg">
    <g clip-path="url(#clip0_4_29)">
        <path
            d="M67.27 61.371C65.1071 61.371 62.9927 60.7296 61.1943 59.5279C59.3959 58.3263 57.9942 56.6183 57.1665 54.62C56.3387 52.6217 56.1222 50.4229 56.5441 48.3015C56.9661 46.1801 58.0077 44.2315 59.5371 42.7021C61.0665 41.1726 63.0151 40.1311 65.1365 39.7091C67.2579 39.2871 69.4567 39.5037 71.455 40.3314C73.4533 41.1592 75.1613 42.5608 76.363 44.3593C77.5646 46.1577 78.206 48.272 78.206 50.435C78.2028 53.3344 77.0496 56.1142 74.9994 58.1644C72.9492 60.2146 70.1694 61.3678 67.27 61.371V61.371ZM67.27 44.443C66.0847 44.443 64.9259 44.7945 63.9403 45.4531C62.9548 46.1116 62.1866 47.0477 61.7331 48.1428C61.2795 49.2379 61.1609 50.443 61.3922 51.6055C61.6235 52.7681 62.1944 53.8359 63.0327 54.674C63.8709 55.5121 64.9388 56.0828 66.1014 56.3139C67.264 56.5451 68.469 56.4263 69.5641 55.9725C70.6592 55.5188 71.5951 54.7505 72.2535 53.7648C72.9119 52.7791 73.2632 51.6203 73.263 50.435C73.2611 48.8461 72.6291 47.3229 71.5056 46.1994C70.3821 45.0758 68.8589 44.4438 67.27 44.442V44.443Z"
            fill="#9A9A9A" />
        <path
            d="M28.711 61.371C26.5481 61.371 24.4337 60.7296 22.6353 59.5279C20.8369 58.3263 19.4352 56.6183 18.6075 54.62C17.7797 52.6217 17.5632 50.4229 17.9851 48.3015C18.4071 46.1801 19.4487 44.2315 20.9781 42.7021C22.5075 41.1726 24.4561 40.1311 26.5775 39.7091C28.6989 39.2871 30.8977 39.5037 32.896 40.3314C34.8943 41.1592 36.6023 42.5608 37.8039 44.3593C39.0056 46.1577 39.647 48.272 39.647 50.435C39.6438 53.3344 38.4906 56.1142 36.4404 58.1644C34.3902 60.2146 31.6104 61.3678 28.711 61.371V61.371ZM28.711 44.443C27.5257 44.443 26.3669 44.7945 25.3814 45.4531C24.3958 46.1116 23.6277 47.0477 23.1741 48.1428C22.7205 49.2379 22.6019 50.443 22.8332 51.6055C23.0646 52.7681 23.6354 53.8359 24.4737 54.674C25.3119 55.5121 26.3798 56.0828 27.5424 56.3139C28.705 56.5451 29.9101 56.4263 31.0051 55.9725C32.1002 55.5188 33.0361 54.7505 33.6945 53.7648C34.3529 52.7791 34.7042 51.6203 34.704 50.435C34.7021 48.8461 34.0701 47.3229 32.9466 46.1994C31.8231 45.0758 30.2999 44.4438 28.711 44.442V44.443Z"
            fill="#9A9A9A" />
        <path
            d="M70.824 10.586H57.838V5.64299H72.348C72.8064 5.64159 73.2561 5.76826 73.6464 6.00872C74.0367 6.24919 74.3521 6.5939 74.557 7.00399L82.864 23.526L78.446 25.747L70.824 10.586Z"
            fill="#9A9A9A" />
        <path d="M58.456 48.058H37.807V53.001H58.456V48.058Z" fill="#9A9A9A" />
        <path
            d="M10.466 53.001C10.1372 53.0076 9.81049 52.9486 9.50484 52.8273C9.19919 52.7061 8.92081 52.5251 8.68597 52.295C8.45114 52.0648 8.26459 51.7901 8.13723 51.487C8.00987 51.1838 7.94427 50.8583 7.94427 50.5295C7.94427 50.2007 8.00987 49.8752 8.13723 49.572C8.26459 49.2689 8.45114 48.9942 8.68597 48.764C8.92081 48.5339 9.19919 48.3529 9.50484 48.2316C9.81049 48.1104 10.1372 48.0514 10.466 48.058H20.247C20.5757 48.0514 20.9025 48.1104 21.2081 48.2316C21.5138 48.3529 21.7922 48.5339 22.027 48.764C22.2618 48.9942 22.4484 49.2689 22.5758 49.572C22.7031 49.8752 22.7687 50.2007 22.7687 50.5295C22.7687 50.8583 22.7031 51.1838 22.5758 51.487C22.4484 51.7901 22.2618 52.0648 22.027 52.295C21.7922 52.5251 21.5138 52.7061 21.2081 52.8273C20.9025 52.9486 20.5757 53.0076 20.247 53.001H10.466Z"
            fill="#9A9A9A" />
        <path
            d="M75.734 53.001C75.4053 53.0076 75.0785 52.9486 74.7729 52.8273C74.4672 52.7061 74.1888 52.5251 73.954 52.295C73.7191 52.0648 73.5326 51.7901 73.4052 51.487C73.2779 51.1838 73.2123 50.8583 73.2123 50.5295C73.2123 50.2007 73.2779 49.8752 73.4052 49.572C73.5326 49.2689 73.7191 48.9942 73.954 48.764C74.1888 48.5339 74.4672 48.3529 74.7729 48.2317C75.0785 48.1104 75.4053 48.0514 75.734 48.058H83.89V33.037L79.603 27.514H57.489C56.8335 27.5135 56.2051 27.2529 55.7416 26.7894C55.2781 26.3259 55.0175 25.6975 55.017 25.042V4.94199H10.466C9.81913 4.92898 9.20314 4.66288 8.75026 4.2008C8.29738 3.73872 8.04372 3.1175 8.04372 2.4705C8.04372 1.82349 8.29738 1.20228 8.75026 0.740196C9.20314 0.278117 9.81913 0.0120054 10.466 -0.00100708H57.489C58.1445 -0.000477421 58.7729 0.260135 59.2364 0.72361C59.6999 1.18709 59.9605 1.81554 59.961 2.47099V22.571H80.813C81.1895 22.5719 81.5608 22.6583 81.899 22.8237C82.2371 22.9892 82.5333 23.2293 82.765 23.526L88.315 30.674C88.6506 31.1082 88.8331 31.6412 88.834 32.19V50.529C88.8332 51.1844 88.5725 51.8127 88.1091 52.2761C87.6457 52.7395 87.0174 53.0002 86.362 53.001H75.734Z"
            fill="#9A9A9A" />
        <path
            d="M7.08 38.706C6.43312 38.693 5.81713 38.4269 5.36426 37.9648C4.91138 37.5027 4.65771 36.8815 4.65771 36.2345C4.65771 35.5875 4.91138 34.9663 5.36426 34.5042C5.81713 34.0421 6.43312 33.776 7.08 33.763H20.055C20.7019 33.776 21.3179 34.0421 21.7707 34.5042C22.2236 34.9663 22.4773 35.5875 22.4773 36.2345C22.4773 36.8815 22.2236 37.5027 21.7707 37.9648C21.3179 38.4269 20.7019 38.693 20.055 38.706H7.08Z"
            fill="#9A9A9A" />
        <path
            d="M2.472 27.608C1.82512 27.595 1.20913 27.3289 0.756255 26.8668C0.303378 26.4047 0.0497131 25.7835 0.0497131 25.1365C0.0497131 24.4895 0.303378 23.8683 0.756255 23.4062C1.20913 22.9441 1.82512 22.678 2.472 22.665H26.547C27.1939 22.678 27.8099 22.9441 28.2627 23.4062C28.7156 23.8683 28.9693 24.4895 28.9693 25.1365C28.9693 25.7835 28.7156 26.4047 28.2627 26.8668C27.8099 27.3289 27.1939 27.595 26.547 27.608H2.472Z"
            fill="#9A9A9A" />
        <path
            d="M7.08 16.511C6.43312 16.498 5.81713 16.2319 5.36426 15.7698C4.91138 15.3077 4.65771 14.6865 4.65771 14.0395C4.65771 13.3925 4.91138 12.7713 5.36426 12.3092C5.81713 11.8471 6.43312 11.581 7.08 11.568H31.155C31.8019 11.581 32.4179 11.8471 32.8707 12.3092C33.3236 12.7713 33.5773 13.3925 33.5773 14.0395C33.5773 14.6865 33.3236 15.3077 32.8707 15.7698C32.4179 16.2319 31.8019 16.498 31.155 16.511H7.08Z"
            fill="#9A9A9A" />
    </g>
    <defs>
        <clipPath id="clip0_4_29">
            <rect width="88.833" height="61.371" fill="white" />
        </clipPath>
    </defs>
</svg>
