<svg xmlns="http://www.w3.org/2000/svg" width="64.344" height="59.907" viewBox="0 0 64.344 59.907">
  <g id="Group_23014" data-name="Group 23014" transform="translate(-51.713 -1226.55)">
    <path id="Path_23108" data-name="Path 23108" d="M26,5H39.313V9.438H26Z" transform="translate(51.229 1221.55)" fill="#a97c50"/>
    <path id="Path_23109" data-name="Path 23109" d="M26.438,9.438v6.656H22V9.438A4.432,4.432,0,0,1,26.438,5Z" transform="translate(50.791 1221.55)" fill="#8b5e3c"/>
    <path id="Path_23110" data-name="Path 23110" d="M42.438,9.438v6.656H38V5a4.432,4.432,0,0,1,4.438,4.438Z" transform="translate(52.541 1221.55)" fill="#8b5e3c"/>
    <path id="Path_23111" data-name="Path 23111" d="M67.344,27V58.063A4.438,4.438,0,0,1,62.907,62.5H7.438A4.438,4.438,0,0,1,3,58.063V27a6.656,6.656,0,0,0,6.656,6.656H60.688A6.656,6.656,0,0,0,67.344,27Z" transform="translate(48.713 1223.957)" fill="#8b5e3c"/>
    <path id="Path_23112" data-name="Path 23112" d="M67.344,23.656v6.656a6.656,6.656,0,0,1-6.656,6.656H9.656A6.656,6.656,0,0,1,3,30.313V21.438A4.438,4.438,0,0,1,7.438,17H62.907a4.438,4.438,0,0,1,4.438,4.438Z" transform="translate(48.713 1222.863)" fill="#754c29"/>
    <path id="Path_23113" data-name="Path 23113" d="M67.344,21.656v6.656a6.656,6.656,0,0,1-6.656,6.656H9.656A6.656,6.656,0,0,1,3,28.313V19.438A4.438,4.438,0,0,1,7.438,15H62.907a4.438,4.438,0,0,1,4.438,4.438Z" transform="translate(48.713 1222.644)" fill="#a97c50"/>
    <path id="Path_23114" data-name="Path 23114" d="M21.438,29V45.641a2.219,2.219,0,0,1-4.438,0V29Z" transform="translate(50.244 1224.176)" fill="#c49a6c"/>
    <path id="Path_23115" data-name="Path 23115" d="M47.438,29V45.641a2.219,2.219,0,1,1-4.438,0V29Z" transform="translate(53.088 1224.176)" fill="#c49a6c"/>
    <path id="Path_23116" data-name="Path 23116" d="M23.875,25v4.438H15V25Z" transform="translate(50.026 1223.738)" fill="#8b5e3c"/>
    <path id="Path_23117" data-name="Path 23117" d="M49.875,25v4.438H41V25Z" transform="translate(52.87 1223.738)" fill="#8b5e3c"/>
    <path id="Path_23118" data-name="Path 23118" d="M15,37h8.875v4.438H15Z" transform="translate(50.026 1225.051)" fill="#a97c50"/>
    <path id="Path_23119" data-name="Path 23119" d="M41,37h8.875v4.438H41Z" transform="translate(52.87 1225.051)" fill="#a97c50"/>
    <g id="Group_22982" data-name="Group 22982" transform="translate(67.244 1253.176)">
      <path id="Path_23120" data-name="Path 23120" d="M17,29h4.438v2.219H17Z" transform="translate(-17 -29)" fill="#9e6c44"/>
      <path id="Path_23121" data-name="Path 23121" d="M17,41h4.438v2.219H17Z" transform="translate(-17 -27.687)" fill="#9e6c44"/>
      <path id="Path_23122" data-name="Path 23122" d="M43,29h4.438v2.219H43Z" transform="translate(-14.156 -29)" fill="#9e6c44"/>
      <path id="Path_23123" data-name="Path 23123" d="M43,41h4.438v2.219H43Z" transform="translate(-14.156 -27.687)" fill="#9e6c44"/>
    </g>
  </g>
</svg>
